<svg width="451" height="307" viewBox="0 0 451 307" fill="none" xmlns="http://www.w3.org/2000/svg">
<rect width="451" height="307" fill="white"/>
<path d="M349.615 185.005C348.386 185.005 347.388 186 347.388 187.232C347.388 188.461 348.386 189.459 349.615 189.459C350.844 189.459 351.842 188.461 351.842 187.232C351.842 186 350.844 185.005 349.615 185.005Z" fill="#90D4D3"/>
<path d="M338.806 185.005C337.576 185.005 336.579 186 336.579 187.232C336.579 188.461 337.576 189.459 338.806 189.459C340.035 189.459 341.032 188.461 341.032 187.232C341.032 186 340.035 185.005 338.806 185.005Z" fill="#90D4D3"/>
<path d="M349.615 195.942C348.386 195.942 347.388 196.938 347.388 198.169C347.388 199.399 348.386 200.401 349.615 200.401C350.844 200.401 351.842 199.399 351.842 198.169C351.842 196.938 350.844 195.942 349.615 195.942Z" fill="#90D4D3"/>
<path d="M338.806 195.942C337.576 195.942 336.579 196.938 336.579 198.169C336.579 199.399 337.576 200.401 338.806 200.401C340.035 200.401 341.032 199.399 341.032 198.169C341.032 196.938 340.035 195.942 338.806 195.942Z" fill="#90D4D3"/>
<path d="M338.806 207.051C337.576 207.051 336.579 208.046 336.579 209.278C336.579 210.507 337.576 211.502 338.806 211.502C340.035 211.502 341.032 210.507 341.032 209.278C341.032 208.046 340.035 207.051 338.806 207.051Z" fill="#90D4D3"/>
<path d="M349.615 207.051C348.386 207.051 347.388 208.046 347.388 209.278C347.388 210.507 348.386 211.502 349.615 211.502C350.844 211.502 351.842 210.507 351.842 209.278C351.842 208.046 350.844 207.051 349.615 207.051Z" fill="#90D4D3"/>
<path d="M349.615 217.988C348.386 217.988 347.388 218.986 347.388 220.215C347.388 221.447 348.386 222.447 349.615 222.447C350.844 222.447 351.842 221.447 351.842 220.215C351.842 218.986 350.844 217.988 349.615 217.988Z" fill="#90D4D3"/>
<path d="M338.806 217.988C337.576 217.988 336.579 218.986 336.579 220.215C336.579 221.447 337.576 222.447 338.806 222.447C340.035 222.447 341.032 221.447 341.032 220.215C341.032 218.986 340.035 217.988 338.806 217.988Z" fill="#90D4D3"/>
<path d="M320.483 223.491C319.254 223.491 318.256 224.489 318.256 225.718C318.256 226.95 319.254 227.945 320.483 227.945C321.715 227.945 322.71 226.95 322.71 225.718C322.71 224.489 321.715 223.491 320.483 223.491Z" fill="#90D4D3"/>
<path d="M374.615 223.491C373.386 223.491 372.388 224.489 372.388 225.718C372.388 226.95 373.386 227.945 374.615 227.945C375.844 227.945 376.842 226.95 376.842 225.718C376.842 224.489 375.844 223.491 374.615 223.491Z" fill="#90D4D3"/>
<path d="M396.276 223.491C395.044 223.491 394.049 224.489 394.049 225.718C394.049 226.95 395.044 227.945 396.276 227.945C397.506 227.945 398.503 226.95 398.503 225.718C398.503 224.489 397.506 223.491 396.276 223.491Z" fill="#90D4D3"/>
<path d="M363.806 223.491C362.576 223.491 361.579 224.489 361.579 225.718C361.579 226.95 362.576 227.945 363.806 227.945C365.035 227.945 366.032 226.95 366.032 225.718C366.032 224.489 365.035 223.491 363.806 223.491Z" fill="#90D4D3"/>
<path d="M417.895 227.945C419.124 227.945 420.122 226.95 420.122 225.718C420.122 224.489 419.124 223.491 417.895 223.491C416.663 223.491 415.668 224.489 415.668 225.718C415.668 226.95 416.663 227.945 417.895 227.945Z" fill="#90D4D3"/>
<path d="M342.144 223.491C340.915 223.491 339.917 224.489 339.917 225.718C339.917 226.95 340.915 227.945 342.144 227.945C343.371 227.945 344.371 226.95 344.371 225.718C344.371 224.489 343.371 223.491 342.144 223.491Z" fill="#90D4D3"/>
<path d="M407.091 223.491C405.859 223.491 404.859 224.489 404.859 225.718C404.859 226.95 405.859 227.945 407.091 227.945C408.315 227.945 409.318 226.95 409.318 225.718C409.318 224.489 408.315 223.491 407.091 223.491Z" fill="#90D4D3"/>
<path d="M385.424 223.491C384.192 223.491 383.197 224.489 383.197 225.718C383.197 226.95 384.192 227.945 385.424 227.945C386.654 227.945 387.651 226.95 387.651 225.718C387.651 224.489 386.654 223.491 385.424 223.491Z" fill="#90D4D3"/>
<path d="M352.953 223.491C351.724 223.491 350.727 224.489 350.727 225.718C350.727 226.95 351.724 227.945 352.953 227.945C354.185 227.945 355.18 226.95 355.18 225.718C355.18 224.489 354.185 223.491 352.953 223.491Z" fill="#90D4D3"/>
<path d="M331.335 223.491C330.106 223.491 329.108 224.489 329.108 225.718C329.108 226.95 330.106 227.945 331.335 227.945C332.567 227.945 333.562 226.95 333.562 225.718C333.562 224.489 332.567 223.491 331.335 223.491Z" fill="#90D4D3"/>
<path d="M342.144 234.428C340.915 234.428 339.917 235.424 339.917 236.655C339.917 237.885 340.915 238.882 342.144 238.882C343.371 238.882 344.371 237.885 344.371 236.655C344.371 235.424 343.371 234.428 342.144 234.428Z" fill="#90D4D3"/>
<path d="M352.953 234.428C351.724 234.428 350.727 235.424 350.727 236.655C350.727 237.885 351.724 238.882 352.953 238.882C354.185 238.882 355.18 237.885 355.18 236.655C355.18 235.424 354.185 234.428 352.953 234.428Z" fill="#90D4D3"/>
<path d="M320.483 234.428C319.254 234.428 318.256 235.424 318.256 236.655C318.256 237.885 319.254 238.882 320.483 238.882C321.715 238.882 322.71 237.885 322.71 236.655C322.71 235.424 321.715 234.428 320.483 234.428Z" fill="#90D4D3"/>
<path d="M363.806 234.428C362.576 234.428 361.579 235.424 361.579 236.655C361.579 237.885 362.576 238.882 363.806 238.882C365.035 238.882 366.032 237.885 366.032 236.655C366.032 235.424 365.035 234.428 363.806 234.428Z" fill="#90D4D3"/>
<path d="M331.335 234.428C330.106 234.428 329.108 235.424 329.108 236.655C329.108 237.885 330.106 238.882 331.335 238.882C332.567 238.882 333.562 237.885 333.562 236.655C333.562 235.424 332.567 234.428 331.335 234.428Z" fill="#90D4D3"/>
<path d="M396.276 234.428C395.044 234.428 394.049 235.424 394.049 236.655C394.049 237.885 395.044 238.882 396.276 238.882C397.506 238.882 398.503 237.885 398.503 236.655C398.503 235.424 397.506 234.428 396.276 234.428Z" fill="#90D4D3"/>
<path d="M417.895 234.428C416.663 234.428 415.668 235.424 415.668 236.655C415.668 237.885 416.663 238.882 417.895 238.882C419.124 238.882 420.122 237.885 420.122 236.655C420.122 235.424 419.124 234.428 417.895 234.428Z" fill="#90D4D3"/>
<path d="M374.615 234.428C373.386 234.428 372.388 235.424 372.388 236.655C372.388 237.885 373.386 238.882 374.615 238.882C375.844 238.882 376.842 237.885 376.842 236.655C376.842 235.424 375.844 234.428 374.615 234.428Z" fill="#90D4D3"/>
<path d="M385.424 234.428C384.192 234.428 383.197 235.424 383.197 236.655C383.197 237.885 384.192 238.882 385.424 238.882C386.654 238.882 387.651 237.885 387.651 236.655C387.651 235.424 386.654 234.428 385.424 234.428Z" fill="#90D4D3"/>
<path d="M407.091 234.428C405.859 234.428 404.859 235.424 404.859 236.655C404.859 237.885 405.859 238.882 407.091 238.882C408.315 238.882 409.318 237.885 409.318 236.655C409.318 235.424 408.315 234.428 407.091 234.428Z" fill="#90D4D3"/>
<path d="M374.615 245.537C373.386 245.537 372.388 246.532 372.388 247.764C372.388 248.993 373.386 249.991 374.615 249.991C375.844 249.991 376.842 248.993 376.842 247.764C376.842 246.532 375.844 245.537 374.615 245.537Z" fill="#90D4D3"/>
<path d="M363.806 245.537C362.576 245.537 361.579 246.532 361.579 247.764C361.579 248.993 362.576 249.991 363.806 249.991C365.035 249.991 366.032 248.993 366.032 247.764C366.032 246.532 365.035 245.537 363.806 245.537Z" fill="#90D4D3"/>
<path d="M363.806 256.474C362.576 256.474 361.579 257.472 361.579 258.701C361.579 259.933 362.576 260.928 363.806 260.928C365.035 260.928 366.032 259.933 366.032 258.701C366.032 257.472 365.035 256.474 363.806 256.474Z" fill="#90D4D3"/>
<path d="M374.615 256.474C373.386 256.474 372.388 257.472 372.388 258.701C372.388 259.933 373.386 260.928 374.615 260.928C375.844 260.928 376.842 259.933 376.842 258.701C376.842 257.472 375.844 256.474 374.615 256.474Z" fill="#90D4D3"/>
<path d="M374.615 267.583C373.386 267.583 372.388 268.58 372.388 269.81C372.388 271.042 373.386 272.037 374.615 272.037C375.844 272.037 376.842 271.042 376.842 269.81C376.842 268.58 375.844 267.583 374.615 267.583Z" fill="#90D4D3"/>
<path d="M363.806 267.583C362.576 267.583 361.579 268.58 361.579 269.81C361.579 271.042 362.576 272.037 363.806 272.037C365.035 272.037 366.032 271.042 366.032 269.81C366.032 268.58 365.035 267.583 363.806 267.583Z" fill="#90D4D3"/>
<path d="M437.113 239.52C435.884 239.52 434.886 240.518 434.886 241.747C434.886 242.976 435.884 243.974 437.113 243.974C438.342 243.974 439.34 242.976 439.34 241.747C439.34 240.518 438.342 239.52 437.113 239.52Z" fill="#90D4D3"/>
<path d="M447.922 239.52C446.693 239.52 445.696 240.518 445.696 241.747C445.696 242.976 446.693 243.974 447.922 243.974C449.152 243.974 450.149 242.976 450.149 241.747C450.149 240.518 449.152 239.52 447.922 239.52Z" fill="#90D4D3"/>
<path d="M340.012 229.473C334.561 229.473 331.97 224.739 329.89 220.937C327.885 217.269 326.503 215.045 324.228 215.045C321.955 215.045 320.573 217.269 318.567 220.934C316.485 224.739 313.897 229.473 308.44 229.473C302.986 229.473 300.398 224.737 298.319 220.934C296.313 217.269 294.934 215.045 292.661 215.045C290.383 215.045 289.001 217.269 286.993 220.937C284.914 224.739 282.32 229.473 276.866 229.473C271.404 229.473 268.813 224.739 266.731 220.934C264.721 217.269 263.339 215.045 261.061 215.045C258.781 215.045 257.399 217.269 255.388 220.937C253.306 224.739 250.715 229.473 245.256 229.473C243.849 229.473 242.711 228.333 242.711 226.928C242.711 225.523 243.849 224.383 245.256 224.383C247.536 224.383 248.916 222.156 250.927 218.491C253.008 214.689 255.599 209.955 261.061 209.955C266.52 209.955 269.111 214.686 271.193 218.489C273.201 222.156 274.586 224.383 276.866 224.383C279.139 224.383 280.523 222.156 282.531 218.491C284.611 214.689 287.202 209.955 292.661 209.955C298.115 209.955 300.703 214.689 302.783 218.491C304.788 222.156 306.168 224.383 308.44 224.383C310.716 224.383 312.098 222.156 314.103 218.491C316.183 214.689 318.773 209.955 324.228 209.955C329.684 209.955 332.273 214.689 334.354 218.494C336.36 222.159 337.742 224.383 340.012 224.383C341.42 224.383 342.557 225.523 342.557 226.928C342.557 228.333 341.42 229.473 340.012 229.473Z" fill="#90D4D3"/>
<path d="M58.9462 128.058L14.7686 245.709L138.745 225.143L58.9462 128.058Z" fill="#EE3F97"/>
<path d="M54.6529 109.048L13.5753 218.443L128.855 199.319L54.6529 109.048ZM5.71094 224.908L52.9885 99.0048L138.389 202.9L5.71094 224.908Z" fill="white"/>
<path d="M124.509 0H105.711V5.09015H124.509V0Z" fill="#90D4D3"/>
<path d="M292.459 74.0927H273.658V79.1828H292.459V74.0927Z" fill="#90D4D3"/>
<path d="M304.246 198.087H285.448V203.177H304.246V198.087Z" fill="#90D4D3"/>
<path d="M205.173 301.046H186.372V306.136H205.173V301.046Z" fill="#90D4D3"/>
<path d="M65.6767 174.349H46.8787V179.44H65.6767V174.349Z" fill="#90D4D3"/>
<path d="M182.578 51.5074C182.578 49.0463 184.579 47.0433 187.043 47.0433C189.504 47.0433 191.507 49.0463 191.507 51.5074C191.507 53.9685 189.504 55.9715 187.043 55.9715C184.579 55.9715 182.578 53.9685 182.578 51.5074ZM196.597 51.5074C196.597 46.2391 192.308 41.9531 187.043 41.9531C181.774 41.9531 177.488 46.2391 177.488 51.5074C177.488 56.7757 181.774 61.0616 187.043 61.0616C192.308 61.0616 196.597 56.7757 196.597 51.5074Z" fill="#EE3F97"/>
<path d="M366.611 96.8243C364.147 96.8243 362.147 94.8238 362.147 92.3602C362.147 89.8991 364.147 87.8986 366.611 87.8986C369.072 87.8986 371.075 89.8991 371.075 92.3602C371.075 94.8238 369.072 96.8243 366.611 96.8243ZM366.611 82.8085C361.34 82.8085 357.057 87.0944 357.057 92.3602C357.057 97.6285 361.34 101.914 366.611 101.914C371.877 101.914 376.165 97.6285 376.165 92.3602C376.165 87.0944 371.877 82.8085 366.611 82.8085Z" fill="#EE3F97"/>
<path d="M195.798 223.804C193.335 223.804 191.334 221.804 191.334 219.34C191.334 216.879 193.335 214.876 195.798 214.876C198.259 214.876 200.26 216.879 200.26 219.34C200.26 221.804 198.259 223.804 195.798 223.804ZM195.798 209.786C190.53 209.786 186.244 214.072 186.244 219.34C186.244 224.609 190.53 228.895 195.798 228.895C201.064 228.895 205.35 224.609 205.35 219.34C205.35 214.072 201.064 209.786 195.798 209.786Z" fill="#EE3F97"/>
<path d="M9.55171 124.424C7.09061 124.424 5.09017 122.421 5.09017 119.96C5.09017 117.497 7.09061 115.496 9.55171 115.496C12.0154 115.496 14.0158 117.497 14.0158 119.96C14.0158 122.421 12.0154 124.424 9.55171 124.424ZM9.55171 110.406C4.28592 110.406 0 114.692 0 119.96C0 125.229 4.28592 129.515 9.55171 129.515C14.82 129.515 19.106 125.229 19.106 119.96C19.106 114.692 14.82 110.406 9.55171 110.406Z" fill="#EE3F97"/>
<path d="M80.5432 72.479L88.1607 81.5243L97.2084 73.9094L89.591 64.8641L80.5432 72.479Z" fill="#FBB315"/>
<path d="M328.434 21.9729L336.052 31.0181L345.094 23.4007L337.477 14.3555L328.434 21.9729Z" fill="#FBB315"/>
<path d="M262.881 164.331L270.501 173.377L279.544 165.762L271.927 156.714L262.881 164.331Z" fill="#FBB315"/>
<path d="M47.0781 270.245L54.6981 279.29L63.7433 271.673L56.1259 262.628L47.0781 270.245Z" fill="#FBB315"/>
<path d="M401.817 192.276L392.772 199.891L400.389 208.936L409.435 201.321L401.817 192.276Z" fill="#FBB315"/>
<path d="M288.398 196.626C283.486 196.626 283.478 204.261 288.398 204.261C293.31 204.261 293.32 196.626 288.398 196.626Z" fill="white"/>
<path d="M96.0868 172.605C91.0068 172.605 86.2468 171.645 81.8068 169.725C81.3268 169.525 80.9268 169.205 80.6068 168.765C80.2868 168.285 80.1268 167.785 80.1268 167.265C80.1268 166.585 80.3468 166.005 80.7868 165.525C81.2668 165.005 81.8668 164.745 82.5868 164.745C82.9868 164.745 83.3668 164.825 83.7268 164.985C87.4068 166.625 91.3468 167.445 95.5468 167.445C102.547 167.445 106.047 165.145 106.047 160.545C106.047 159.345 105.587 158.345 104.667 157.545C103.787 156.745 102.687 156.125 101.367 155.685C100.047 155.205 98.1668 154.645 95.7268 154.005C92.4868 153.165 89.8668 152.365 87.8668 151.605C85.8668 150.805 84.1468 149.625 82.7068 148.065C81.2668 146.505 80.5468 144.425 80.5468 141.825C80.5468 139.545 81.1468 137.485 82.3468 135.645C83.5468 133.765 85.3068 132.285 87.6268 131.205C89.9868 130.085 92.8068 129.525 96.0868 129.525C100.487 129.525 104.467 130.185 108.027 131.505C109.147 131.905 109.707 132.705 109.707 133.905C109.707 134.545 109.487 135.125 109.047 135.645C108.607 136.165 108.027 136.425 107.307 136.425C107.067 136.425 106.747 136.345 106.347 136.185C103.227 135.105 100.007 134.565 96.6868 134.565C93.5268 134.565 90.9468 135.165 88.9468 136.365C86.9868 137.565 86.0068 139.245 86.0068 141.405C86.0068 142.845 86.4668 144.025 87.3868 144.945C88.3468 145.825 89.5268 146.525 90.9268 147.045C92.3668 147.525 94.3068 148.045 96.7468 148.605C99.9068 149.365 102.447 150.125 104.367 150.885C106.327 151.645 107.987 152.825 109.347 154.425C110.747 156.025 111.447 158.185 111.447 160.905C111.447 163.145 110.807 165.165 109.527 166.965C108.247 168.725 106.447 170.105 104.127 171.105C101.807 172.105 99.1268 172.605 96.0868 172.605ZM133.431 172.605C129.511 172.605 126.091 171.085 123.171 168.045V169.605C123.171 170.365 122.891 171.005 122.331 171.525C121.811 172.045 121.171 172.305 120.411 172.305C119.651 172.305 119.011 172.045 118.491 171.525C117.971 171.005 117.711 170.365 117.711 169.605V130.665C117.711 129.905 117.971 129.265 118.491 128.745C119.011 128.185 119.651 127.905 120.411 127.905C121.211 127.905 121.871 128.165 122.391 128.685C122.911 129.205 123.171 129.865 123.171 130.665V145.365C126.091 142.325 129.511 140.805 133.431 140.805C135.911 140.805 138.251 141.445 140.451 142.725C142.691 143.965 144.491 145.805 145.851 148.245C147.251 150.645 147.951 153.465 147.951 156.705C147.951 159.945 147.251 162.785 145.851 165.225C144.491 167.625 142.691 169.465 140.451 170.745C138.251 171.985 135.911 172.605 133.431 172.605ZM132.651 167.505C135.611 167.505 137.991 166.565 139.791 164.685C141.591 162.805 142.491 160.145 142.491 156.705C142.491 153.265 141.591 150.605 139.791 148.725C137.991 146.845 135.611 145.905 132.651 145.905C130.811 145.905 129.071 146.325 127.431 147.165C125.831 147.965 124.411 149.045 123.171 150.405V163.005C124.411 164.365 125.831 165.465 127.431 166.305C129.071 167.105 130.811 167.505 132.651 167.505ZM157.662 172.305C156.902 172.305 156.262 172.045 155.742 171.525C155.222 171.005 154.962 170.365 154.962 169.605V130.665C154.962 129.905 155.222 129.265 155.742 128.745C156.262 128.185 156.902 127.905 157.662 127.905C158.462 127.905 159.122 128.165 159.642 128.685C160.162 129.205 160.422 129.865 160.422 130.665V169.605C160.422 170.365 160.142 171.005 159.582 171.525C159.062 172.045 158.422 172.305 157.662 172.305ZM182.984 172.605C178.104 172.605 174.284 171.225 171.524 168.465C168.804 165.665 167.444 161.745 167.444 156.705C167.444 153.865 167.964 151.245 169.004 148.845C170.044 146.445 171.644 144.505 173.804 143.025C175.964 141.545 178.624 140.805 181.784 140.805C184.744 140.805 187.304 141.505 189.464 142.905C191.624 144.265 193.264 146.105 194.384 148.425C195.504 150.705 196.064 153.205 196.064 155.925C196.064 156.685 195.804 157.325 195.284 157.845C194.804 158.365 194.144 158.625 193.304 158.625H172.964C173.284 161.425 174.324 163.605 176.084 165.165C177.844 166.725 180.304 167.505 183.464 167.505C185.144 167.505 186.604 167.345 187.844 167.025C189.124 166.705 190.364 166.245 191.564 165.645C191.884 165.485 192.244 165.405 192.644 165.405C193.284 165.405 193.844 165.625 194.324 166.065C194.804 166.505 195.044 167.065 195.044 167.745C195.044 168.625 194.524 169.365 193.484 169.965C191.924 170.845 190.384 171.505 188.864 171.945C187.344 172.385 185.384 172.605 182.984 172.605ZM190.664 154.185C190.544 152.225 190.024 150.585 189.104 149.265C188.224 147.945 187.124 146.985 185.804 146.385C184.484 145.745 183.144 145.425 181.784 145.425C180.424 145.425 179.084 145.745 177.764 146.385C176.444 146.985 175.344 147.945 174.464 149.265C173.584 150.585 173.084 152.225 172.964 154.185H190.664ZM205.388 172.305C204.628 172.305 203.988 172.045 203.468 171.525C202.948 171.005 202.688 170.365 202.688 169.605V143.865C202.688 143.105 202.948 142.465 203.468 141.945C203.988 141.385 204.628 141.105 205.388 141.105C206.148 141.105 206.788 141.385 207.308 141.945C207.868 142.465 208.148 143.105 208.148 143.865V146.325C209.668 144.645 211.308 143.305 213.068 142.305C214.828 141.305 216.908 140.805 219.308 140.805C221.508 140.805 223.408 141.325 225.008 142.365C226.648 143.405 227.888 144.825 228.728 146.625C229.608 148.425 230.048 150.405 230.048 152.565V169.605C230.048 170.365 229.768 171.005 229.208 171.525C228.688 172.045 228.048 172.305 227.288 172.305C226.528 172.305 225.888 172.045 225.368 171.525C224.848 171.005 224.588 170.365 224.588 169.605V153.165C224.588 148.285 222.388 145.845 217.988 145.845C215.988 145.845 214.188 146.365 212.588 147.405C211.028 148.445 209.548 149.845 208.148 151.605V169.605C208.148 170.365 207.868 171.005 207.308 171.525C206.788 172.045 206.148 172.305 205.388 172.305ZM251.311 172.605C248.831 172.605 246.471 171.985 244.231 170.745C242.031 169.465 240.231 167.625 238.831 165.225C237.471 162.785 236.791 159.945 236.791 156.705C236.791 153.465 237.471 150.645 238.831 148.245C240.231 145.805 242.031 143.965 244.231 142.725C246.471 141.445 248.831 140.805 251.311 140.805C255.231 140.805 258.651 142.325 261.571 145.365V130.665C261.571 129.865 261.831 129.205 262.351 128.685C262.911 128.165 263.571 127.905 264.331 127.905C265.091 127.905 265.731 128.185 266.251 128.745C266.771 129.265 267.031 129.905 267.031 130.665V169.605C267.031 170.365 266.771 171.005 266.251 171.525C265.731 172.045 265.091 172.305 264.331 172.305C263.571 172.305 262.911 172.045 262.351 171.525C261.831 171.005 261.571 170.365 261.571 169.605V168.045C258.651 171.085 255.231 172.605 251.311 172.605ZM252.091 167.505C253.931 167.505 255.651 167.105 257.251 166.305C258.891 165.465 260.331 164.365 261.571 163.005V150.405C260.331 149.045 258.891 147.965 257.251 147.165C255.651 146.325 253.931 145.905 252.091 145.905C249.131 145.905 246.751 146.845 244.951 148.725C243.151 150.605 242.251 153.265 242.251 156.705C242.251 160.145 243.151 162.805 244.951 164.685C246.751 166.565 249.131 167.505 252.091 167.505ZM278.482 135.165C277.642 135.165 276.922 134.865 276.322 134.265C275.722 133.665 275.422 132.945 275.422 132.105V131.865C275.422 131.025 275.722 130.305 276.322 129.705C276.922 129.105 277.642 128.805 278.482 128.805H278.842C279.682 128.805 280.402 129.105 281.002 129.705C281.602 130.305 281.902 131.025 281.902 131.865V132.105C281.902 132.945 281.602 133.665 281.002 134.265C280.402 134.865 279.682 135.165 278.842 135.165H278.482ZM278.602 172.305C277.842 172.305 277.202 172.045 276.682 171.525C276.162 171.005 275.902 170.365 275.902 169.605V143.865C275.902 143.105 276.162 142.465 276.682 141.945C277.202 141.385 277.842 141.105 278.602 141.105C279.402 141.105 280.062 141.365 280.582 141.885C281.102 142.405 281.362 143.065 281.362 143.865V169.605C281.362 170.365 281.082 171.005 280.522 171.525C280.002 172.045 279.362 172.305 278.602 172.305ZM302.904 172.605C300.424 172.605 298.064 171.985 295.824 170.745C293.624 169.465 291.824 167.625 290.424 165.225C289.064 162.785 288.384 159.945 288.384 156.705C288.384 153.465 289.064 150.645 290.424 148.245C291.824 145.805 293.624 143.965 295.824 142.725C298.064 141.445 300.424 140.805 302.904 140.805C306.824 140.805 310.244 142.325 313.164 145.365V130.665C313.164 129.865 313.424 129.205 313.944 128.685C314.504 128.165 315.164 127.905 315.924 127.905C316.684 127.905 317.324 128.185 317.844 128.745C318.364 129.265 318.624 129.905 318.624 130.665V169.605C318.624 170.365 318.364 171.005 317.844 171.525C317.324 172.045 316.684 172.305 315.924 172.305C315.164 172.305 314.504 172.045 313.944 171.525C313.424 171.005 313.164 170.365 313.164 169.605V168.045C310.244 171.085 306.824 172.605 302.904 172.605ZM303.684 167.505C305.524 167.505 307.244 167.105 308.844 166.305C310.484 165.465 311.924 164.365 313.164 163.005V150.405C311.924 149.045 310.484 147.965 308.844 147.165C307.244 146.325 305.524 145.905 303.684 145.905C300.724 145.905 298.344 146.845 296.544 148.725C294.744 150.605 293.844 153.265 293.844 156.705C293.844 160.145 294.744 162.805 296.544 164.685C298.344 166.565 300.724 167.505 303.684 167.505Z" fill="#221E55"/>
<path d="M81.8068 169.725L82.0053 169.266L81.9991 169.263L81.8068 169.725ZM80.6068 168.765L80.1908 169.042L80.1964 169.051L80.2024 169.059L80.6068 168.765ZM80.7868 165.525L80.4194 165.186L80.4182 165.187L80.7868 165.525ZM83.7268 164.985L83.9303 164.528L83.9299 164.528L83.7268 164.985ZM104.667 157.545L104.33 157.915L104.339 157.922L104.667 157.545ZM101.367 155.685L101.196 156.155L101.209 156.159L101.367 155.685ZM95.7268 154.005L95.8537 153.521L95.8523 153.521L95.7268 154.005ZM87.8668 151.605L87.6811 152.069L87.6892 152.072L87.8668 151.605ZM82.7068 148.065L82.3394 148.404L82.3394 148.404L82.7068 148.065ZM82.3468 135.645L82.7656 135.918L82.7683 135.914L82.3468 135.645ZM87.6268 131.205L87.8378 131.658L87.8412 131.656L87.6268 131.205ZM108.027 131.505L107.853 131.974L107.859 131.976L108.027 131.505ZM109.047 135.645L109.428 135.968L109.428 135.968L109.047 135.645ZM106.347 136.185L106.532 135.721L106.522 135.716L106.51 135.712L106.347 136.185ZM88.9468 136.365L88.6895 135.936L88.6857 135.938L88.9468 136.365ZM87.3868 144.945L87.0332 145.298L87.0409 145.306L87.0489 145.313L87.3868 144.945ZM90.9268 147.045L90.7527 147.513L90.7606 147.516L90.7687 147.519L90.9268 147.045ZM96.7468 148.605L96.8637 148.119L96.8586 148.117L96.7468 148.605ZM104.367 150.885L104.183 151.35L104.186 151.351L104.367 150.885ZM109.347 154.425L108.966 154.749L108.971 154.754L109.347 154.425ZM109.527 166.965L109.931 167.259L109.934 167.255L109.527 166.965ZM104.127 171.105L104.325 171.564L104.325 171.564L104.127 171.105ZM96.0868 172.105C91.0716 172.105 86.3795 171.157 82.0053 169.266L81.6083 170.184C86.1141 172.132 90.942 173.105 96.0868 173.105V172.105ZM81.9991 169.263C81.6078 169.1 81.2798 168.84 81.0112 168.471L80.2024 169.059C80.5738 169.569 81.0458 169.949 81.6145 170.186L81.9991 169.263ZM81.0228 168.487C80.7514 168.08 80.6268 167.675 80.6268 167.265H79.6268C79.6268 167.894 79.8222 168.489 80.1908 169.042L81.0228 168.487ZM80.6268 167.265C80.6268 166.704 80.8039 166.246 81.1554 165.863L80.4182 165.187C79.8897 165.764 79.6268 166.466 79.6268 167.265H80.6268ZM81.1542 165.864C81.5377 165.448 82.0036 165.245 82.5868 165.245V164.245C81.73 164.245 80.9959 164.561 80.4194 165.186L81.1542 165.864ZM82.5868 165.245C82.9179 165.245 83.2287 165.311 83.5237 165.442L83.9299 164.528C83.5049 164.339 83.0556 164.245 82.5868 164.245V165.245ZM83.5233 165.441C87.27 167.111 91.2797 167.945 95.5468 167.945V166.945C91.4139 166.945 87.5435 166.138 83.9303 164.528L83.5233 165.441ZM95.5468 167.945C99.0857 167.945 101.827 167.366 103.696 166.138C105.603 164.885 106.547 162.994 106.547 160.545H105.547C105.547 162.696 104.741 164.255 103.147 165.302C101.517 166.373 99.0079 166.945 95.5468 166.945V167.945ZM106.547 160.545C106.547 159.197 106.022 158.061 104.995 157.167L104.339 157.922C105.152 158.629 105.547 159.492 105.547 160.545H106.547ZM105.003 157.175C104.064 156.321 102.9 155.669 101.525 155.21L101.209 156.159C102.474 156.581 103.51 157.169 104.33 157.915L105.003 157.175ZM101.538 155.215C100.196 154.727 98.2988 154.162 95.8537 153.521L95.5999 154.488C98.0348 155.127 99.8974 155.682 101.196 156.155L101.538 155.215ZM95.8523 153.521C92.6213 152.683 90.0206 151.888 88.0444 151.137L87.6892 152.072C89.7129 152.841 92.3523 153.646 95.6013 154.489L95.8523 153.521ZM88.0525 151.141C86.1206 150.368 84.4629 149.23 83.0742 147.726L82.3394 148.404C83.8307 150.019 85.613 151.242 87.6811 152.069L88.0525 151.141ZM83.0742 147.726C81.7376 146.278 81.0468 144.329 81.0468 141.825H80.0468C80.0468 144.521 80.7959 146.732 82.3394 148.404L83.0742 147.726ZM81.0468 141.825C81.0468 139.638 81.6207 137.673 82.7656 135.918L81.928 135.372C80.6729 137.296 80.0468 139.452 80.0468 141.825H81.0468ZM82.7683 135.914C83.9099 134.125 85.591 132.704 87.8378 131.658L87.4158 130.751C85.0225 131.866 83.1837 133.404 81.9253 135.376L82.7683 135.914ZM87.8412 131.656C90.1193 130.575 92.8625 130.025 96.0868 130.025V129.025C92.7511 129.025 89.8543 129.594 87.4124 130.753L87.8412 131.656ZM96.0868 130.025C100.437 130.025 104.357 130.677 107.853 131.974L108.201 131.036C104.577 129.692 100.537 129.025 96.0868 129.025V130.025ZM107.859 131.976C108.343 132.148 108.669 132.393 108.877 132.691C109.086 132.99 109.207 133.384 109.207 133.905H110.207C110.207 133.226 110.048 132.62 109.696 132.118C109.345 131.616 108.831 131.261 108.195 131.034L107.859 131.976ZM109.207 133.905C109.207 134.419 109.034 134.886 108.665 135.322L109.428 135.968C109.94 135.364 110.207 134.671 110.207 133.905H109.207ZM108.665 135.322C108.326 135.722 107.889 135.925 107.307 135.925V136.925C108.164 136.925 108.887 136.607 109.428 135.968L108.665 135.322ZM107.307 135.925C107.162 135.925 106.913 135.873 106.532 135.721L106.161 136.649C106.581 136.817 106.971 136.925 107.307 136.925V135.925ZM106.51 135.712C103.337 134.614 100.062 134.065 96.6868 134.065V135.065C99.9514 135.065 103.116 135.596 106.183 136.657L106.51 135.712ZM96.6868 134.065C93.4672 134.065 90.7901 134.676 88.6895 135.936L89.204 136.794C91.1035 135.654 93.5864 135.065 96.6868 135.065V134.065ZM88.6857 135.938C86.5888 137.222 85.5068 139.058 85.5068 141.405H86.5068C86.5068 139.432 87.3848 137.907 89.2079 136.791L88.6857 135.938ZM85.5068 141.405C85.5068 142.962 86.009 144.274 87.0332 145.298L87.7403 144.591C86.9246 143.775 86.5068 142.728 86.5068 141.405H85.5068ZM87.0489 145.313C88.063 146.243 89.301 146.974 90.7527 147.513L91.1009 146.576C89.7526 146.075 88.6306 145.407 87.7247 144.576L87.0489 145.313ZM90.7687 147.519C92.2304 148.006 94.1879 148.53 96.6349 149.092L96.8586 148.117C94.4257 147.559 92.5032 147.043 91.0849 146.57L90.7687 147.519ZM96.6299 149.091C99.7784 149.848 102.293 150.602 104.183 151.35L104.551 150.42C102.6 149.648 100.035 148.881 96.8637 148.119L96.6299 149.091ZM104.186 151.351C106.069 152.081 107.66 153.212 108.966 154.749L109.728 154.101C108.314 152.438 106.585 151.209 104.548 150.419L104.186 151.351ZM108.971 154.754C110.271 156.24 110.947 158.271 110.947 160.905H111.947C111.947 158.098 111.223 155.81 109.723 154.096L108.971 154.754ZM110.947 160.905C110.947 163.042 110.338 164.961 109.119 166.675L109.934 167.255C111.275 165.369 111.947 163.247 111.947 160.905H110.947ZM109.122 166.671C107.903 168.347 106.18 169.675 103.929 170.646L104.325 171.564C106.714 170.534 108.59 169.102 109.931 167.259L109.122 166.671ZM103.929 170.646C101.683 171.614 99.0723 172.105 96.0868 172.105V173.105C99.1813 173.105 101.931 172.596 104.325 171.564L103.929 170.646ZM123.171 168.045L123.531 167.698L122.671 166.802V168.045H123.171ZM122.331 171.525L121.99 171.158L121.984 171.165L121.977 171.171L122.331 171.525ZM118.491 171.525L118.844 171.171L118.844 171.171L118.491 171.525ZM118.491 128.745L118.844 129.098L118.851 129.092L118.857 129.085L118.491 128.745ZM122.391 128.685L122.744 128.331L122.744 128.331L122.391 128.685ZM123.171 145.365H122.671V146.607L123.531 145.711L123.171 145.365ZM140.451 142.725L140.199 143.157L140.209 143.162L140.451 142.725ZM145.851 148.245L145.414 148.488L145.419 148.497L145.851 148.245ZM145.851 165.225L145.417 164.976L145.416 164.978L145.851 165.225ZM140.451 170.745L140.696 171.18L140.699 171.179L140.451 170.745ZM139.791 164.685L140.152 165.031L140.152 165.031L139.791 164.685ZM139.791 148.725L140.152 148.379L139.791 148.725ZM127.431 147.165L127.654 147.612L127.659 147.61L127.431 147.165ZM123.171 150.405L122.801 150.068L122.671 150.211V150.405H123.171ZM123.171 163.005H122.671V163.198L122.801 163.342L123.171 163.005ZM127.431 166.305L127.198 166.747L127.205 166.751L127.211 166.754L127.431 166.305ZM133.431 172.105C129.658 172.105 126.365 170.648 123.531 167.698L122.81 168.391C125.816 171.521 129.364 173.105 133.431 173.105V172.105ZM122.671 168.045V169.605H123.671V168.045H122.671ZM122.671 169.605C122.671 170.225 122.449 170.732 121.99 171.158L122.671 171.891C123.332 171.277 123.671 170.505 123.671 169.605H122.671ZM121.977 171.171C121.554 171.594 121.043 171.805 120.411 171.805V172.805C121.298 172.805 122.067 172.496 122.684 171.878L121.977 171.171ZM120.411 171.805C119.778 171.805 119.267 171.594 118.844 171.171L118.137 171.878C118.754 172.496 119.523 172.805 120.411 172.805V171.805ZM118.844 171.171C118.421 170.748 118.211 170.237 118.211 169.605H117.211C117.211 170.492 117.52 171.261 118.137 171.878L118.844 171.171ZM118.211 169.605V130.665H117.211V169.605H118.211ZM118.211 130.665C118.211 130.032 118.421 129.521 118.844 129.098L118.137 128.391C117.52 129.008 117.211 129.777 117.211 130.665H118.211ZM118.857 129.085C119.283 128.626 119.791 128.405 120.411 128.405V127.405C119.511 127.405 118.738 127.743 118.124 128.405L118.857 129.085ZM120.411 128.405C121.091 128.405 121.62 128.621 122.037 129.038L122.744 128.331C122.122 127.709 121.33 127.405 120.411 127.405V128.405ZM122.037 129.038C122.455 129.456 122.671 129.985 122.671 130.665H123.671C123.671 129.745 123.367 128.954 122.744 128.331L122.037 129.038ZM122.671 130.665V145.365H123.671V130.665H122.671ZM123.531 145.711C126.365 142.761 129.658 141.305 133.431 141.305V140.305C129.364 140.305 125.816 141.888 122.81 145.018L123.531 145.711ZM133.431 141.305C135.82 141.305 138.074 141.92 140.199 143.157L140.702 142.293C138.428 140.969 136.001 140.305 133.431 140.305V141.305ZM140.209 143.162C142.359 144.353 144.095 146.122 145.414 148.488L146.287 148.001C144.886 145.487 143.022 143.577 140.693 142.287L140.209 143.162ZM145.419 148.497C146.767 150.808 147.451 153.538 147.451 156.705H148.451C148.451 153.391 147.734 150.481 146.283 147.993L145.419 148.497ZM147.451 156.705C147.451 159.871 146.767 162.623 145.417 164.976L146.284 165.474C147.734 162.947 148.451 160.019 148.451 156.705H147.451ZM145.416 164.978C144.097 167.306 142.359 169.078 140.203 170.311L140.699 171.179C143.022 169.851 144.885 167.944 146.286 165.471L145.416 164.978ZM140.205 170.309C138.079 171.508 135.823 172.105 133.431 172.105V173.105C135.998 173.105 138.423 172.462 140.696 171.18L140.205 170.309ZM132.651 168.005C135.727 168.005 138.244 167.023 140.152 165.031L139.43 164.339C137.737 166.107 135.495 167.005 132.651 167.005V168.005ZM140.152 165.031C142.067 163.031 142.991 160.231 142.991 156.705H141.991C141.991 160.059 141.115 162.579 139.43 164.339L140.152 165.031ZM142.991 156.705C142.991 153.179 142.067 150.379 140.152 148.379L139.43 149.071C141.115 150.831 141.991 153.351 141.991 156.705H142.991ZM140.152 148.379C138.244 146.387 135.727 145.405 132.651 145.405V146.405C135.495 146.405 137.737 147.303 139.43 149.071L140.152 148.379ZM132.651 145.405C130.731 145.405 128.913 145.844 127.203 146.72L127.659 147.61C129.228 146.806 130.89 146.405 132.651 146.405V145.405ZM127.207 146.718C125.551 147.546 124.081 148.664 122.801 150.068L123.54 150.742C124.74 149.426 126.111 148.384 127.654 147.612L127.207 146.718ZM122.671 150.405V163.005H123.671V150.405H122.671ZM122.801 163.342C124.08 164.744 125.546 165.88 127.198 166.747L127.663 165.862C126.116 165.05 124.742 163.986 123.54 162.668L122.801 163.342ZM127.211 166.754C128.92 167.588 130.735 168.005 132.651 168.005V167.005C130.886 167.005 129.221 166.622 127.65 165.855L127.211 166.754ZM155.742 171.525L156.096 171.171L156.096 171.171L155.742 171.525ZM155.742 128.745L156.096 129.098L156.102 129.092L156.109 129.085L155.742 128.745ZM159.642 128.685L159.996 128.331L159.996 128.331L159.642 128.685ZM159.582 171.525L159.242 171.158L159.235 171.165L159.229 171.171L159.582 171.525ZM157.662 171.805C157.03 171.805 156.519 171.594 156.096 171.171L155.389 171.878C156.006 172.496 156.775 172.805 157.662 172.805V171.805ZM156.096 171.171C155.673 170.748 155.462 170.237 155.462 169.605H154.462C154.462 170.492 154.771 171.261 155.389 171.878L156.096 171.171ZM155.462 169.605V130.665H154.462V169.605H155.462ZM155.462 130.665C155.462 130.032 155.673 129.521 156.096 129.098L155.389 128.391C154.771 129.008 154.462 129.777 154.462 130.665H155.462ZM156.109 129.085C156.535 128.626 157.042 128.405 157.662 128.405V127.405C156.762 127.405 155.99 127.743 155.376 128.405L156.109 129.085ZM157.662 128.405C158.343 128.405 158.871 128.621 159.289 129.038L159.996 128.331C159.373 127.709 158.582 127.405 157.662 127.405V128.405ZM159.289 129.038C159.706 129.456 159.922 129.985 159.922 130.665H160.922C160.922 129.745 160.618 128.954 159.996 128.331L159.289 129.038ZM159.922 130.665V169.605H160.922V130.665H159.922ZM159.922 169.605C159.922 170.225 159.701 170.732 159.242 171.158L159.922 171.891C160.584 171.277 160.922 170.505 160.922 169.605H159.922ZM159.229 171.171C158.806 171.594 158.295 171.805 157.662 171.805V172.805C158.55 172.805 159.319 172.496 159.936 171.878L159.229 171.171ZM171.524 168.465L171.165 168.813L171.17 168.818L171.524 168.465ZM173.804 143.025L174.086 143.437L174.086 143.437L173.804 143.025ZM189.464 142.905L189.192 143.324L189.197 143.328L189.464 142.905ZM194.384 148.425L193.933 148.642L193.935 148.645L194.384 148.425ZM195.284 157.845L194.93 157.491L194.923 157.498L194.916 157.506L195.284 157.845ZM172.964 158.625V158.125H172.403L172.467 158.682L172.964 158.625ZM176.084 165.165L175.752 165.539L175.752 165.539L176.084 165.165ZM187.844 167.025L187.722 166.54L187.719 166.541L187.844 167.025ZM191.564 165.645L191.34 165.198L191.34 165.198L191.564 165.645ZM194.324 166.065L194.662 165.696L194.324 166.065ZM193.484 169.965L193.729 170.4L193.734 170.398L193.484 169.965ZM188.864 171.945L189.003 172.425L189.003 172.425L188.864 171.945ZM190.664 154.185V154.685H191.195L191.163 154.154L190.664 154.185ZM189.104 149.265L188.688 149.542L188.693 149.551L189.104 149.265ZM185.804 146.385L185.585 146.835L185.597 146.84L185.804 146.385ZM177.764 146.385L177.971 146.84L177.982 146.835L177.764 146.385ZM174.464 149.265L174.88 149.542L174.88 149.542L174.464 149.265ZM172.964 154.185L172.465 154.154L172.432 154.685H172.964V154.185ZM182.984 172.105C178.201 172.105 174.521 170.755 171.877 168.111L171.17 168.818C174.046 171.694 178.006 173.105 182.984 173.105V172.105ZM171.882 168.116C169.277 165.435 167.944 161.654 167.944 156.705H166.944C166.944 161.835 168.33 165.895 171.165 168.813L171.882 168.116ZM167.944 156.705C167.944 153.927 168.452 151.376 169.462 149.044L168.545 148.646C167.475 151.114 166.944 153.802 166.944 156.705H167.944ZM169.462 149.044C170.465 146.73 172.004 144.864 174.086 143.437L173.521 142.612C171.283 144.145 169.622 146.159 168.545 148.646L169.462 149.044ZM174.086 143.437C176.147 142.025 178.703 141.305 181.784 141.305V140.305C178.544 140.305 175.78 141.064 173.521 142.612L174.086 143.437ZM181.784 141.305C184.662 141.305 187.124 141.984 189.192 143.324L189.736 142.485C187.483 141.025 184.825 140.305 181.784 140.305V141.305ZM189.197 143.328C191.277 144.637 192.854 146.406 193.933 148.642L194.834 148.207C193.674 145.804 191.97 143.892 189.73 142.482L189.197 143.328ZM193.935 148.645C195.019 150.852 195.564 153.276 195.564 155.925H196.564C196.564 153.134 195.989 150.558 194.832 148.204L193.935 148.645ZM195.564 155.925C195.564 156.557 195.353 157.068 194.93 157.491L195.637 158.198C196.254 157.581 196.564 156.812 196.564 155.925H195.564ZM194.916 157.506C194.549 157.904 194.033 158.125 193.304 158.125V159.125C194.255 159.125 195.059 158.826 195.651 158.184L194.916 157.506ZM193.304 158.125H172.964V159.125H193.304V158.125ZM172.467 158.682C172.798 161.578 173.882 163.882 175.752 165.539L176.415 164.791C174.765 163.328 173.769 161.271 173.46 158.568L172.467 158.682ZM175.752 165.539C177.631 167.204 180.224 168.005 183.464 168.005V167.005C180.383 167.005 178.056 166.245 176.415 164.791L175.752 165.539ZM183.464 168.005C185.174 168.005 186.677 167.842 187.969 167.509L187.719 166.541C186.53 166.847 185.114 167.005 183.464 167.005V168.005ZM187.965 167.51C189.281 167.181 190.555 166.708 191.787 166.092L191.34 165.198C190.172 165.782 188.966 166.229 187.722 166.54L187.965 167.51ZM191.787 166.092C192.03 165.971 192.312 165.905 192.644 165.905V164.905C192.175 164.905 191.737 164.999 191.34 165.198L191.787 166.092ZM192.644 165.905C193.156 165.905 193.596 166.076 193.986 166.433L194.662 165.696C194.091 165.173 193.411 164.905 192.644 164.905V165.905ZM193.986 166.433C194.357 166.774 194.544 167.198 194.544 167.745H195.544C195.544 166.932 195.25 166.236 194.662 165.696L193.986 166.433ZM194.544 167.745C194.544 168.383 194.183 168.984 193.234 169.532L193.734 170.398C194.865 169.745 195.544 168.866 195.544 167.745H194.544ZM193.238 169.529C191.707 170.393 190.203 171.037 188.725 171.464L189.003 172.425C190.564 171.973 192.14 171.297 193.729 170.4L193.238 169.529ZM188.725 171.464C187.267 171.887 185.358 172.105 182.984 172.105V173.105C185.409 173.105 187.421 172.883 189.003 172.425L188.725 171.464ZM191.163 154.154C191.038 152.123 190.497 150.389 189.514 148.979L188.693 149.551C189.55 150.78 190.049 152.327 190.165 154.215L191.163 154.154ZM189.52 148.987C188.593 147.597 187.423 146.572 186.011 145.93L185.597 146.84C186.824 147.398 187.854 148.292 188.688 149.542L189.52 148.987ZM186.022 145.935C184.639 145.265 183.225 144.925 181.784 144.925V145.925C183.062 145.925 184.328 146.225 185.586 146.835L186.022 145.935ZM181.784 144.925C180.342 144.925 178.928 145.265 177.546 145.935L177.982 146.835C179.239 146.225 180.505 145.925 181.784 145.925V144.925ZM177.557 145.93C176.144 146.572 174.974 147.597 174.048 148.987L174.88 149.542C175.713 148.292 176.743 147.398 177.971 146.84L177.557 145.93ZM174.048 148.987C173.108 150.396 172.589 152.127 172.465 154.154L173.463 154.215C173.579 152.323 174.059 150.773 174.88 149.542L174.048 148.987ZM172.964 154.685H190.664V153.685H172.964V154.685ZM203.468 171.525L203.822 171.171L203.822 171.171L203.468 171.525ZM203.468 141.945L203.822 142.298L203.828 142.292L203.834 142.285L203.468 141.945ZM207.308 141.945L206.942 142.285L206.954 142.299L206.968 142.311L207.308 141.945ZM208.148 146.325H207.648V147.623L208.519 146.66L208.148 146.325ZM213.068 142.305L213.315 142.739L213.068 142.305ZM225.008 142.365L224.736 142.784L224.74 142.787L225.008 142.365ZM228.728 146.625L228.275 146.836L228.279 146.844L228.728 146.625ZM229.208 171.525L228.868 171.158L228.861 171.165L228.854 171.171L229.208 171.525ZM225.368 171.525L225.014 171.878L225.014 171.878L225.368 171.525ZM212.588 147.405L212.316 146.986L212.311 146.989L212.588 147.405ZM208.148 151.605L207.757 151.293L207.648 151.43V151.605H208.148ZM207.308 171.525L206.968 171.158L206.961 171.165L206.954 171.171L207.308 171.525ZM205.388 171.805C204.756 171.805 204.244 171.594 203.822 171.171L203.114 171.878C203.732 172.496 204.5 172.805 205.388 172.805V171.805ZM203.822 171.171C203.399 170.748 203.188 170.237 203.188 169.605H202.188C202.188 170.492 202.497 171.261 203.114 171.878L203.822 171.171ZM203.188 169.605V143.865H202.188V169.605H203.188ZM203.188 143.865C203.188 143.232 203.399 142.721 203.822 142.298L203.114 141.591C202.497 142.208 202.188 142.977 202.188 143.865H203.188ZM203.834 142.285C204.26 141.826 204.768 141.605 205.388 141.605V140.605C204.488 140.605 203.716 140.943 203.102 141.605L203.834 142.285ZM205.388 141.605C206.008 141.605 206.516 141.826 206.942 142.285L207.674 141.605C207.06 140.943 206.288 140.605 205.388 140.605V141.605ZM206.968 142.311C207.427 142.737 207.648 143.245 207.648 143.865H208.648C208.648 142.965 208.31 142.192 207.648 141.578L206.968 142.311ZM207.648 143.865V146.325H208.648V143.865H207.648ZM208.519 146.66C210.007 145.015 211.606 143.71 213.315 142.739L212.821 141.87C211.01 142.899 209.329 144.274 207.777 145.989L208.519 146.66ZM213.315 142.739C214.987 141.79 216.979 141.305 219.308 141.305V140.305C216.838 140.305 214.669 140.82 212.821 141.87L213.315 142.739ZM219.308 141.305C221.426 141.305 223.228 141.804 224.736 142.784L225.281 141.946C223.588 140.845 221.59 140.305 219.308 140.305V141.305ZM224.74 142.787C226.298 143.775 227.474 145.121 228.275 146.836L229.181 146.413C228.302 144.529 226.998 143.035 225.276 141.943L224.74 142.787ZM228.279 146.844C229.123 148.571 229.548 150.475 229.548 152.565H230.548C230.548 150.335 230.093 148.279 229.177 146.405L228.279 146.844ZM229.548 152.565V169.605H230.548V152.565H229.548ZM229.548 169.605C229.548 170.225 229.327 170.732 228.868 171.158L229.548 171.891C230.21 171.277 230.548 170.505 230.548 169.605H229.548ZM228.854 171.171C228.432 171.594 227.92 171.805 227.288 171.805V172.805C228.176 172.805 228.944 172.496 229.562 171.878L228.854 171.171ZM227.288 171.805C226.656 171.805 226.144 171.594 225.722 171.171L225.014 171.878C225.632 172.496 226.4 172.805 227.288 172.805V171.805ZM225.722 171.171C225.299 170.748 225.088 170.237 225.088 169.605H224.088C224.088 170.492 224.397 171.261 225.014 171.878L225.722 171.171ZM225.088 169.605V153.165H224.088V169.605H225.088ZM225.088 153.165C225.088 150.66 224.525 148.688 223.309 147.34C222.085 145.982 220.279 145.345 217.988 145.345V146.345C220.097 146.345 221.591 146.927 222.567 148.01C223.552 149.102 224.088 150.79 224.088 153.165H225.088ZM217.988 145.345C215.896 145.345 214.001 145.89 212.316 146.986L212.861 147.824C214.375 146.839 216.08 146.345 217.988 146.345V145.345ZM212.311 146.989C210.7 148.063 209.183 149.501 207.757 151.293L208.539 151.916C209.913 150.189 211.356 148.827 212.865 147.821L212.311 146.989ZM207.648 151.605V169.605H208.648V151.605H207.648ZM207.648 169.605C207.648 170.225 207.427 170.732 206.968 171.158L207.648 171.891C208.31 171.277 208.648 170.505 208.648 169.605H207.648ZM206.954 171.171C206.532 171.594 206.02 171.805 205.388 171.805V172.805C206.276 172.805 207.044 172.496 207.662 171.878L206.954 171.171ZM244.231 170.745L243.979 171.177L243.988 171.182L244.231 170.745ZM238.831 165.225L238.394 165.468L238.399 165.477L238.831 165.225ZM238.831 148.245L238.397 147.996L238.396 147.998L238.831 148.245ZM244.231 142.725L244.476 143.16L244.479 143.159L244.231 142.725ZM261.571 145.365L261.21 145.711L262.071 146.607V145.365H261.571ZM262.351 128.685L262.01 128.318L262.004 128.325L261.997 128.331L262.351 128.685ZM266.251 128.745L265.884 129.085L265.89 129.092L265.897 129.098L266.251 128.745ZM266.251 171.525L266.604 171.878L266.604 171.878L266.251 171.525ZM262.351 171.525L261.997 171.878L262.004 171.885L262.01 171.891L262.351 171.525ZM261.571 168.045H262.071V166.802L261.21 167.698L261.571 168.045ZM257.251 166.305L257.474 166.752L257.478 166.75L257.251 166.305ZM261.571 163.005L261.94 163.342L262.071 163.198V163.005H261.571ZM261.571 150.405H262.071V150.211L261.94 150.068L261.571 150.405ZM257.251 147.165L257.018 147.607L257.025 147.611L257.031 147.614L257.251 147.165ZM244.951 148.725L245.312 149.071L245.312 149.071L244.951 148.725ZM251.311 172.105C248.918 172.105 246.641 171.508 244.473 170.307L243.988 171.182C246.3 172.462 248.743 173.105 251.311 173.105V172.105ZM244.482 170.313C242.363 169.08 240.623 167.305 239.262 164.973L238.399 165.477C239.838 167.944 241.698 169.85 243.979 171.177L244.482 170.313ZM239.267 164.981C237.955 162.627 237.291 159.873 237.291 156.705H236.291C236.291 160.016 236.986 162.943 238.394 165.468L239.267 164.981ZM237.291 156.705C237.291 153.536 237.955 150.804 239.266 148.491L238.396 147.998C236.986 150.486 236.291 153.394 236.291 156.705H237.291ZM239.264 148.494C240.625 146.123 242.363 144.351 244.476 143.16L243.985 142.289C241.698 143.578 239.836 145.487 238.397 147.996L239.264 148.494ZM244.479 143.159C246.646 141.92 248.921 141.305 251.311 141.305V140.305C248.74 140.305 246.295 140.969 243.982 142.291L244.479 143.159ZM251.311 141.305C255.083 141.305 258.376 142.761 261.21 145.711L261.931 145.018C258.925 141.888 255.378 140.305 251.311 140.305V141.305ZM262.071 145.365V130.665H261.071V145.365H262.071ZM262.071 130.665C262.071 129.985 262.287 129.456 262.704 129.038L261.997 128.331C261.375 128.954 261.071 129.745 261.071 130.665H262.071ZM262.691 129.051C263.159 128.617 263.698 128.405 264.331 128.405V127.405C263.444 127.405 262.662 127.713 262.01 128.318L262.691 129.051ZM264.331 128.405C264.951 128.405 265.458 128.626 265.884 129.085L266.617 128.405C266.003 127.743 265.23 127.405 264.331 127.405V128.405ZM265.897 129.098C266.32 129.521 266.531 130.032 266.531 130.665H267.531C267.531 129.777 267.221 129.008 266.604 128.391L265.897 129.098ZM266.531 130.665V169.605H267.531V130.665H266.531ZM266.531 169.605C266.531 170.237 266.32 170.748 265.897 171.171L266.604 171.878C267.221 171.261 267.531 170.492 267.531 169.605H266.531ZM265.897 171.171C265.474 171.594 264.963 171.805 264.331 171.805V172.805C265.218 172.805 265.987 172.496 266.604 171.878L265.897 171.171ZM264.331 171.805C263.698 171.805 263.159 171.593 262.691 171.158L262.01 171.891C262.662 172.497 263.444 172.805 264.331 172.805V171.805ZM262.704 171.171C262.281 170.748 262.071 170.237 262.071 169.605H261.071C261.071 170.492 261.38 171.261 261.997 171.878L262.704 171.171ZM262.071 169.605V168.045H261.071V169.605H262.071ZM261.21 167.698C258.376 170.648 255.083 172.105 251.311 172.105V173.105C255.378 173.105 258.925 171.521 261.931 168.391L261.21 167.698ZM252.091 168.005C254.006 168.005 255.803 167.588 257.474 166.752L257.027 165.858C255.498 166.622 253.855 167.005 252.091 167.005V168.005ZM257.478 166.75C259.172 165.883 260.66 164.746 261.94 163.342L261.201 162.668C260.001 163.984 258.609 165.047 257.023 165.86L257.478 166.75ZM262.071 163.005V150.405H261.071V163.005H262.071ZM261.94 150.068C260.658 148.662 259.167 147.543 257.47 146.715L257.031 147.614C258.614 148.386 260.003 149.428 261.201 150.742L261.94 150.068ZM257.483 146.722C255.81 145.844 254.01 145.405 252.091 145.405V146.405C253.851 146.405 255.491 146.806 257.018 147.607L257.483 146.722ZM252.091 145.405C249.015 145.405 246.497 146.387 244.589 148.379L245.312 149.071C247.004 147.303 249.246 146.405 252.091 146.405V145.405ZM244.589 148.379C242.675 150.379 241.751 153.179 241.751 156.705H242.751C242.751 153.351 243.627 150.831 245.312 149.071L244.589 148.379ZM241.751 156.705C241.751 160.231 242.675 163.031 244.589 165.031L245.312 164.339C243.627 162.579 242.751 160.059 242.751 156.705H241.751ZM244.589 165.031C246.497 167.023 249.015 168.005 252.091 168.005V167.005C249.246 167.005 247.004 166.107 245.312 164.339L244.589 165.031ZM276.322 134.265L275.969 134.618L275.969 134.618L276.322 134.265ZM281.002 134.265L281.356 134.618L281.356 134.618L281.002 134.265ZM276.682 171.525L277.036 171.171L277.036 171.171L276.682 171.525ZM276.682 141.945L277.036 142.298L277.042 142.292L277.049 142.285L276.682 141.945ZM280.582 141.885L280.936 141.531L280.582 141.885ZM280.522 171.525L280.182 171.158L280.175 171.165L280.169 171.171L280.522 171.525ZM278.482 134.665C277.776 134.665 277.183 134.419 276.676 133.911L275.969 134.618C276.661 135.311 277.508 135.665 278.482 135.665V134.665ZM276.676 133.911C276.168 133.404 275.922 132.811 275.922 132.105H274.922C274.922 133.079 275.276 133.926 275.969 134.618L276.676 133.911ZM275.922 132.105V131.865H274.922V132.105H275.922ZM275.922 131.865C275.922 131.159 276.168 130.566 276.676 130.058L275.969 129.351C275.276 130.044 274.922 130.891 274.922 131.865H275.922ZM276.676 130.058C277.183 129.551 277.776 129.305 278.482 129.305V128.305C277.508 128.305 276.661 128.659 275.969 129.351L276.676 130.058ZM278.482 129.305H278.842V128.305H278.482V129.305ZM278.842 129.305C279.548 129.305 280.141 129.551 280.649 130.058L281.356 129.351C280.663 128.659 279.816 128.305 278.842 128.305V129.305ZM280.649 130.058C281.156 130.566 281.402 131.159 281.402 131.865H282.402C282.402 130.891 282.048 130.044 281.356 129.351L280.649 130.058ZM281.402 131.865V132.105H282.402V131.865H281.402ZM281.402 132.105C281.402 132.811 281.156 133.404 280.649 133.911L281.356 134.618C282.048 133.926 282.402 133.079 282.402 132.105H281.402ZM280.649 133.911C280.141 134.419 279.548 134.665 278.842 134.665V135.665C279.816 135.665 280.663 135.311 281.356 134.618L280.649 133.911ZM278.842 134.665H278.482V135.665H278.842V134.665ZM278.602 171.805C277.97 171.805 277.458 171.594 277.036 171.171L276.329 171.878C276.946 172.496 277.714 172.805 278.602 172.805V171.805ZM277.036 171.171C276.613 170.748 276.402 170.237 276.402 169.605H275.402C275.402 170.492 275.711 171.261 276.329 171.878L277.036 171.171ZM276.402 169.605V143.865H275.402V169.605H276.402ZM276.402 143.865C276.402 143.232 276.613 142.721 277.036 142.298L276.329 141.591C275.711 142.208 275.402 142.977 275.402 143.865H276.402ZM277.049 142.285C277.474 141.826 277.982 141.605 278.602 141.605V140.605C277.702 140.605 276.93 140.943 276.316 141.605L277.049 142.285ZM278.602 141.605C279.282 141.605 279.811 141.821 280.229 142.238L280.936 141.531C280.313 140.909 279.522 140.605 278.602 140.605V141.605ZM280.229 142.238C280.646 142.656 280.862 143.185 280.862 143.865H281.862C281.862 142.945 281.558 142.154 280.936 141.531L280.229 142.238ZM280.862 143.865V169.605H281.862V143.865H280.862ZM280.862 169.605C280.862 170.225 280.641 170.732 280.182 171.158L280.862 171.891C281.524 171.277 281.862 170.505 281.862 169.605H280.862ZM280.169 171.171C279.746 171.594 279.234 171.805 278.602 171.805V172.805C279.49 172.805 280.258 172.496 280.876 171.878L280.169 171.171ZM295.824 170.745L295.572 171.177L295.581 171.182L295.824 170.745ZM290.424 165.225L289.987 165.468L289.992 165.477L290.424 165.225ZM290.424 148.245L289.99 147.996L289.988 147.998L290.424 148.245ZM295.824 142.725L296.069 143.16L296.072 143.159L295.824 142.725ZM313.164 145.365L312.803 145.711L313.664 146.607V145.365H313.164ZM313.944 128.685L313.603 128.318L313.597 128.325L313.59 128.331L313.944 128.685ZM317.844 128.745L317.477 129.085L317.483 129.092L317.49 129.098L317.844 128.745ZM317.844 171.525L318.197 171.878L318.197 171.878L317.844 171.525ZM313.944 171.525L313.59 171.878L313.597 171.885L313.603 171.891L313.944 171.525ZM313.164 168.045H313.664V166.802L312.803 167.698L313.164 168.045ZM308.844 166.305L309.067 166.752L309.071 166.75L308.844 166.305ZM313.164 163.005L313.533 163.342L313.664 163.198V163.005H313.164ZM313.164 150.405H313.664V150.211L313.533 150.068L313.164 150.405ZM308.844 147.165L308.611 147.607L308.618 147.611L308.624 147.614L308.844 147.165ZM296.544 148.725L296.905 149.071L296.905 149.071L296.544 148.725ZM302.904 172.105C300.511 172.105 298.234 171.508 296.066 170.307L295.581 171.182C297.893 172.462 300.336 173.105 302.904 173.105V172.105ZM296.075 170.313C293.956 169.08 292.216 167.305 290.855 164.973L289.992 165.477C291.431 167.944 293.291 169.85 295.572 171.177L296.075 170.313ZM290.86 164.981C289.548 162.627 288.884 159.873 288.884 156.705H287.884C287.884 160.016 288.579 162.943 289.987 165.468L290.86 164.981ZM288.884 156.705C288.884 153.536 289.548 150.804 290.859 148.491L289.988 147.998C288.579 150.486 287.884 153.394 287.884 156.705H288.884ZM290.857 148.494C292.218 146.123 293.956 144.351 296.069 143.16L295.578 142.289C293.291 143.578 291.429 145.487 289.99 147.996L290.857 148.494ZM296.072 143.159C298.239 141.92 300.514 141.305 302.904 141.305V140.305C300.333 140.305 297.888 140.969 295.575 142.291L296.072 143.159ZM302.904 141.305C306.676 141.305 309.969 142.761 312.803 145.711L313.524 145.018C310.518 141.888 306.971 140.305 302.904 140.305V141.305ZM313.664 145.365V130.665H312.664V145.365H313.664ZM313.664 130.665C313.664 129.985 313.88 129.456 314.297 129.038L313.59 128.331C312.967 128.954 312.664 129.745 312.664 130.665H313.664ZM314.284 129.051C314.752 128.617 315.29 128.405 315.924 128.405V127.405C315.037 127.405 314.255 127.713 313.603 128.318L314.284 129.051ZM315.924 128.405C316.544 128.405 317.051 128.626 317.477 129.085L318.21 128.405C317.596 127.743 316.823 127.405 315.924 127.405V128.405ZM317.49 129.098C317.913 129.521 318.124 130.032 318.124 130.665H319.124C319.124 129.777 318.814 129.008 318.197 128.391L317.49 129.098ZM318.124 130.665V169.605H319.124V130.665H318.124ZM318.124 169.605C318.124 170.237 317.913 170.748 317.49 171.171L318.197 171.878C318.814 171.261 319.124 170.492 319.124 169.605H318.124ZM317.49 171.171C317.067 171.594 316.556 171.805 315.924 171.805V172.805C316.811 172.805 317.58 172.496 318.197 171.878L317.49 171.171ZM315.924 171.805C315.29 171.805 314.752 171.593 314.284 171.158L313.603 171.891C314.255 172.497 315.037 172.805 315.924 172.805V171.805ZM314.297 171.171C313.874 170.748 313.664 170.237 313.664 169.605H312.664C312.664 170.492 312.973 171.261 313.59 171.878L314.297 171.171ZM313.664 169.605V168.045H312.664V169.605H313.664ZM312.803 167.698C309.969 170.648 306.676 172.105 302.904 172.105V173.105C306.971 173.105 310.518 171.521 313.524 168.391L312.803 167.698ZM303.684 168.005C305.599 168.005 307.396 167.588 309.067 166.752L308.62 165.858C307.091 166.622 305.448 167.005 303.684 167.005V168.005ZM309.071 166.75C310.765 165.883 312.253 164.746 313.533 163.342L312.794 162.668C311.594 163.984 310.202 165.047 308.616 165.86L309.071 166.75ZM313.664 163.005V150.405H312.664V163.005H313.664ZM313.533 150.068C312.251 148.662 310.76 147.543 309.063 146.715L308.624 147.614C310.207 148.386 311.596 149.428 312.794 150.742L313.533 150.068ZM309.076 146.722C307.403 145.844 305.603 145.405 303.684 145.405V146.405C305.444 146.405 307.084 146.806 308.611 147.607L309.076 146.722ZM303.684 145.405C300.608 145.405 298.09 146.387 296.182 148.379L296.905 149.071C298.597 147.303 300.839 146.405 303.684 146.405V145.405ZM296.182 148.379C294.268 150.379 293.344 153.179 293.344 156.705H294.344C294.344 153.351 295.219 150.831 296.905 149.071L296.182 148.379ZM293.344 156.705C293.344 160.231 294.268 163.031 296.182 165.031L296.905 164.339C295.219 162.579 294.344 160.059 294.344 156.705H293.344ZM296.182 165.031C298.09 167.023 300.608 168.005 303.684 168.005V167.005C300.839 167.005 298.597 166.107 296.905 164.339L296.182 165.031Z" fill="#221E55"/>
<path d="M194.711 180.005H117.711C116.054 180.005 114.711 181.348 114.711 183.005C114.711 184.662 116.054 186.005 117.711 186.005H194.711C196.368 186.005 197.711 184.662 197.711 183.005C197.711 181.348 196.368 180.005 194.711 180.005Z" fill="#90D4D3"/>
<path d="M194.711 180.005H117.711C116.054 180.005 114.711 181.348 114.711 183.005C114.711 184.662 116.054 186.005 117.711 186.005H194.711C196.368 186.005 197.711 184.662 197.711 183.005C197.711 181.348 196.368 180.005 194.711 180.005Z" fill="#FBB315"/>
</svg>
