<svg width="451" height="307" viewBox="0 0 451 307" fill="none" xmlns="http://www.w3.org/2000/svg">
<rect width="451" height="307" fill="white"/>
<path d="M349.615 185.005C348.386 185.005 347.388 186 347.388 187.232C347.388 188.461 348.386 189.459 349.615 189.459C350.844 189.459 351.842 188.461 351.842 187.232C351.842 186 350.844 185.005 349.615 185.005Z" fill="#90D4D3"/>
<path d="M338.806 185.005C337.576 185.005 336.579 186 336.579 187.232C336.579 188.461 337.576 189.459 338.806 189.459C340.035 189.459 341.032 188.461 341.032 187.232C341.032 186 340.035 185.005 338.806 185.005Z" fill="#90D4D3"/>
<path d="M349.615 195.942C348.386 195.942 347.388 196.938 347.388 198.169C347.388 199.399 348.386 200.401 349.615 200.401C350.844 200.401 351.842 199.399 351.842 198.169C351.842 196.938 350.844 195.942 349.615 195.942Z" fill="#90D4D3"/>
<path d="M338.806 195.942C337.576 195.942 336.579 196.938 336.579 198.169C336.579 199.399 337.576 200.401 338.806 200.401C340.035 200.401 341.032 199.399 341.032 198.169C341.032 196.938 340.035 195.942 338.806 195.942Z" fill="#90D4D3"/>
<path d="M338.806 207.051C337.576 207.051 336.579 208.046 336.579 209.278C336.579 210.507 337.576 211.502 338.806 211.502C340.035 211.502 341.032 210.507 341.032 209.278C341.032 208.046 340.035 207.051 338.806 207.051Z" fill="#90D4D3"/>
<path d="M349.615 207.051C348.386 207.051 347.388 208.046 347.388 209.278C347.388 210.507 348.386 211.502 349.615 211.502C350.844 211.502 351.842 210.507 351.842 209.278C351.842 208.046 350.844 207.051 349.615 207.051Z" fill="#90D4D3"/>
<path d="M349.615 217.988C348.386 217.988 347.388 218.986 347.388 220.215C347.388 221.447 348.386 222.447 349.615 222.447C350.844 222.447 351.842 221.447 351.842 220.215C351.842 218.986 350.844 217.988 349.615 217.988Z" fill="#90D4D3"/>
<path d="M338.806 217.988C337.576 217.988 336.579 218.986 336.579 220.215C336.579 221.447 337.576 222.447 338.806 222.447C340.035 222.447 341.032 221.447 341.032 220.215C341.032 218.986 340.035 217.988 338.806 217.988Z" fill="#90D4D3"/>
<path d="M320.483 223.491C319.254 223.491 318.256 224.489 318.256 225.718C318.256 226.95 319.254 227.945 320.483 227.945C321.715 227.945 322.71 226.95 322.71 225.718C322.71 224.489 321.715 223.491 320.483 223.491Z" fill="#90D4D3"/>
<path d="M374.615 223.491C373.386 223.491 372.388 224.489 372.388 225.718C372.388 226.95 373.386 227.945 374.615 227.945C375.844 227.945 376.842 226.95 376.842 225.718C376.842 224.489 375.844 223.491 374.615 223.491Z" fill="#90D4D3"/>
<path d="M396.276 223.491C395.044 223.491 394.049 224.489 394.049 225.718C394.049 226.95 395.044 227.945 396.276 227.945C397.506 227.945 398.503 226.95 398.503 225.718C398.503 224.489 397.506 223.491 396.276 223.491Z" fill="#90D4D3"/>
<path d="M363.806 223.491C362.576 223.491 361.579 224.489 361.579 225.718C361.579 226.95 362.576 227.945 363.806 227.945C365.035 227.945 366.032 226.95 366.032 225.718C366.032 224.489 365.035 223.491 363.806 223.491Z" fill="#90D4D3"/>
<path d="M417.895 227.945C419.124 227.945 420.122 226.95 420.122 225.718C420.122 224.489 419.124 223.491 417.895 223.491C416.663 223.491 415.668 224.489 415.668 225.718C415.668 226.95 416.663 227.945 417.895 227.945Z" fill="#90D4D3"/>
<path d="M342.144 223.491C340.915 223.491 339.917 224.489 339.917 225.718C339.917 226.95 340.915 227.945 342.144 227.945C343.371 227.945 344.371 226.95 344.371 225.718C344.371 224.489 343.371 223.491 342.144 223.491Z" fill="#90D4D3"/>
<path d="M407.091 223.491C405.859 223.491 404.859 224.489 404.859 225.718C404.859 226.95 405.859 227.945 407.091 227.945C408.315 227.945 409.318 226.95 409.318 225.718C409.318 224.489 408.315 223.491 407.091 223.491Z" fill="#90D4D3"/>
<path d="M385.424 223.491C384.192 223.491 383.197 224.489 383.197 225.718C383.197 226.95 384.192 227.945 385.424 227.945C386.654 227.945 387.651 226.95 387.651 225.718C387.651 224.489 386.654 223.491 385.424 223.491Z" fill="#90D4D3"/>
<path d="M352.953 223.491C351.724 223.491 350.727 224.489 350.727 225.718C350.727 226.95 351.724 227.945 352.953 227.945C354.185 227.945 355.18 226.95 355.18 225.718C355.18 224.489 354.185 223.491 352.953 223.491Z" fill="#90D4D3"/>
<path d="M331.335 223.491C330.106 223.491 329.108 224.489 329.108 225.718C329.108 226.95 330.106 227.945 331.335 227.945C332.567 227.945 333.562 226.95 333.562 225.718C333.562 224.489 332.567 223.491 331.335 223.491Z" fill="#90D4D3"/>
<path d="M342.144 234.428C340.915 234.428 339.917 235.424 339.917 236.655C339.917 237.885 340.915 238.882 342.144 238.882C343.371 238.882 344.371 237.885 344.371 236.655C344.371 235.424 343.371 234.428 342.144 234.428Z" fill="#90D4D3"/>
<path d="M352.953 234.428C351.724 234.428 350.727 235.424 350.727 236.655C350.727 237.885 351.724 238.882 352.953 238.882C354.185 238.882 355.18 237.885 355.18 236.655C355.18 235.424 354.185 234.428 352.953 234.428Z" fill="#90D4D3"/>
<path d="M320.483 234.428C319.254 234.428 318.256 235.424 318.256 236.655C318.256 237.885 319.254 238.882 320.483 238.882C321.715 238.882 322.71 237.885 322.71 236.655C322.71 235.424 321.715 234.428 320.483 234.428Z" fill="#90D4D3"/>
<path d="M363.806 234.428C362.576 234.428 361.579 235.424 361.579 236.655C361.579 237.885 362.576 238.882 363.806 238.882C365.035 238.882 366.032 237.885 366.032 236.655C366.032 235.424 365.035 234.428 363.806 234.428Z" fill="#90D4D3"/>
<path d="M331.335 234.428C330.106 234.428 329.108 235.424 329.108 236.655C329.108 237.885 330.106 238.882 331.335 238.882C332.567 238.882 333.562 237.885 333.562 236.655C333.562 235.424 332.567 234.428 331.335 234.428Z" fill="#90D4D3"/>
<path d="M396.276 234.428C395.044 234.428 394.049 235.424 394.049 236.655C394.049 237.885 395.044 238.882 396.276 238.882C397.506 238.882 398.503 237.885 398.503 236.655C398.503 235.424 397.506 234.428 396.276 234.428Z" fill="#90D4D3"/>
<path d="M417.895 234.428C416.663 234.428 415.668 235.424 415.668 236.655C415.668 237.885 416.663 238.882 417.895 238.882C419.124 238.882 420.122 237.885 420.122 236.655C420.122 235.424 419.124 234.428 417.895 234.428Z" fill="#90D4D3"/>
<path d="M374.615 234.428C373.386 234.428 372.388 235.424 372.388 236.655C372.388 237.885 373.386 238.882 374.615 238.882C375.844 238.882 376.842 237.885 376.842 236.655C376.842 235.424 375.844 234.428 374.615 234.428Z" fill="#90D4D3"/>
<path d="M385.424 234.428C384.192 234.428 383.197 235.424 383.197 236.655C383.197 237.885 384.192 238.882 385.424 238.882C386.654 238.882 387.651 237.885 387.651 236.655C387.651 235.424 386.654 234.428 385.424 234.428Z" fill="#90D4D3"/>
<path d="M407.091 234.428C405.859 234.428 404.859 235.424 404.859 236.655C404.859 237.885 405.859 238.882 407.091 238.882C408.315 238.882 409.318 237.885 409.318 236.655C409.318 235.424 408.315 234.428 407.091 234.428Z" fill="#90D4D3"/>
<path d="M374.615 245.537C373.386 245.537 372.388 246.532 372.388 247.764C372.388 248.993 373.386 249.991 374.615 249.991C375.844 249.991 376.842 248.993 376.842 247.764C376.842 246.532 375.844 245.537 374.615 245.537Z" fill="#90D4D3"/>
<path d="M363.806 245.537C362.576 245.537 361.579 246.532 361.579 247.764C361.579 248.993 362.576 249.991 363.806 249.991C365.035 249.991 366.032 248.993 366.032 247.764C366.032 246.532 365.035 245.537 363.806 245.537Z" fill="#90D4D3"/>
<path d="M363.806 256.474C362.576 256.474 361.579 257.472 361.579 258.701C361.579 259.933 362.576 260.928 363.806 260.928C365.035 260.928 366.032 259.933 366.032 258.701C366.032 257.472 365.035 256.474 363.806 256.474Z" fill="#90D4D3"/>
<path d="M374.615 256.474C373.386 256.474 372.388 257.472 372.388 258.701C372.388 259.933 373.386 260.928 374.615 260.928C375.844 260.928 376.842 259.933 376.842 258.701C376.842 257.472 375.844 256.474 374.615 256.474Z" fill="#90D4D3"/>
<path d="M374.615 267.583C373.386 267.583 372.388 268.58 372.388 269.81C372.388 271.042 373.386 272.037 374.615 272.037C375.844 272.037 376.842 271.042 376.842 269.81C376.842 268.58 375.844 267.583 374.615 267.583Z" fill="#90D4D3"/>
<path d="M363.806 267.583C362.576 267.583 361.579 268.58 361.579 269.81C361.579 271.042 362.576 272.037 363.806 272.037C365.035 272.037 366.032 271.042 366.032 269.81C366.032 268.58 365.035 267.583 363.806 267.583Z" fill="#90D4D3"/>
<path d="M437.113 239.52C435.884 239.52 434.886 240.518 434.886 241.747C434.886 242.976 435.884 243.974 437.113 243.974C438.342 243.974 439.34 242.976 439.34 241.747C439.34 240.518 438.342 239.52 437.113 239.52Z" fill="#90D4D3"/>
<path d="M447.922 239.52C446.693 239.52 445.696 240.518 445.696 241.747C445.696 242.976 446.693 243.974 447.922 243.974C449.152 243.974 450.149 242.976 450.149 241.747C450.149 240.518 449.152 239.52 447.922 239.52Z" fill="#90D4D3"/>
<path d="M340.012 229.473C334.561 229.473 331.97 224.739 329.89 220.937C327.885 217.269 326.503 215.045 324.228 215.045C321.955 215.045 320.573 217.269 318.567 220.934C316.485 224.739 313.897 229.473 308.44 229.473C302.986 229.473 300.398 224.737 298.319 220.934C296.313 217.269 294.934 215.045 292.661 215.045C290.383 215.045 289.001 217.269 286.993 220.937C284.914 224.739 282.32 229.473 276.866 229.473C271.404 229.473 268.813 224.739 266.731 220.934C264.721 217.269 263.339 215.045 261.061 215.045C258.781 215.045 257.399 217.269 255.388 220.937C253.306 224.739 250.715 229.473 245.256 229.473C243.849 229.473 242.711 228.333 242.711 226.928C242.711 225.523 243.849 224.383 245.256 224.383C247.536 224.383 248.916 222.156 250.927 218.491C253.008 214.689 255.599 209.955 261.061 209.955C266.52 209.955 269.111 214.686 271.193 218.489C273.201 222.156 274.586 224.383 276.866 224.383C279.139 224.383 280.523 222.156 282.531 218.491C284.611 214.689 287.202 209.955 292.661 209.955C298.115 209.955 300.703 214.689 302.783 218.491C304.788 222.156 306.168 224.383 308.44 224.383C310.716 224.383 312.098 222.156 314.103 218.491C316.183 214.689 318.773 209.955 324.228 209.955C329.684 209.955 332.273 214.689 334.354 218.494C336.36 222.159 337.742 224.383 340.012 224.383C341.42 224.383 342.557 225.523 342.557 226.928C342.557 228.333 341.42 229.473 340.012 229.473Z" fill="#90D4D3"/>
<path d="M58.9462 128.058L14.7686 245.709L138.745 225.143L58.9462 128.058Z" fill="#EE3F97"/>
<path d="M54.6529 109.048L13.5753 218.443L128.855 199.319L54.6529 109.048ZM5.71094 224.908L52.9885 99.0048L138.389 202.9L5.71094 224.908Z" fill="white"/>
<path d="M124.509 0H105.711V5.09015H124.509V0Z" fill="#90D4D3"/>
<path d="M292.459 74.0927H273.658V79.1828H292.459V74.0927Z" fill="#90D4D3"/>
<path d="M304.246 198.087H285.448V203.177H304.246V198.087Z" fill="#90D4D3"/>
<path d="M205.173 301.046H186.372V306.136H205.173V301.046Z" fill="#90D4D3"/>
<path d="M65.6767 174.349H46.8787V179.44H65.6767V174.349Z" fill="#90D4D3"/>
<path d="M182.578 51.5074C182.578 49.0463 184.579 47.0433 187.043 47.0433C189.504 47.0433 191.507 49.0463 191.507 51.5074C191.507 53.9685 189.504 55.9715 187.043 55.9715C184.579 55.9715 182.578 53.9685 182.578 51.5074ZM196.597 51.5074C196.597 46.2391 192.308 41.9531 187.043 41.9531C181.774 41.9531 177.488 46.2391 177.488 51.5074C177.488 56.7757 181.774 61.0616 187.043 61.0616C192.308 61.0616 196.597 56.7757 196.597 51.5074Z" fill="#EE3F97"/>
<path d="M366.611 96.8243C364.147 96.8243 362.147 94.8238 362.147 92.3602C362.147 89.8991 364.147 87.8986 366.611 87.8986C369.072 87.8986 371.075 89.8991 371.075 92.3602C371.075 94.8238 369.072 96.8243 366.611 96.8243ZM366.611 82.8085C361.34 82.8085 357.057 87.0944 357.057 92.3602C357.057 97.6285 361.34 101.914 366.611 101.914C371.877 101.914 376.165 97.6285 376.165 92.3602C376.165 87.0944 371.877 82.8085 366.611 82.8085Z" fill="#EE3F97"/>
<path d="M195.798 223.804C193.335 223.804 191.334 221.804 191.334 219.34C191.334 216.879 193.335 214.876 195.798 214.876C198.259 214.876 200.26 216.879 200.26 219.34C200.26 221.804 198.259 223.804 195.798 223.804ZM195.798 209.786C190.53 209.786 186.244 214.072 186.244 219.34C186.244 224.609 190.53 228.895 195.798 228.895C201.064 228.895 205.35 224.609 205.35 219.34C205.35 214.072 201.064 209.786 195.798 209.786Z" fill="#EE3F97"/>
<path d="M9.55171 124.424C7.09061 124.424 5.09017 122.421 5.09017 119.96C5.09017 117.497 7.09061 115.496 9.55171 115.496C12.0154 115.496 14.0158 117.497 14.0158 119.96C14.0158 122.421 12.0154 124.424 9.55171 124.424ZM9.55171 110.406C4.28592 110.406 0 114.692 0 119.96C0 125.229 4.28592 129.515 9.55171 129.515C14.82 129.515 19.106 125.229 19.106 119.96C19.106 114.692 14.82 110.406 9.55171 110.406Z" fill="#EE3F97"/>
<path d="M80.5432 72.479L88.1607 81.5243L97.2084 73.9094L89.591 64.8641L80.5432 72.479Z" fill="#FBB315"/>
<path d="M328.434 21.9729L336.052 31.0181L345.094 23.4007L337.477 14.3555L328.434 21.9729Z" fill="#FBB315"/>
<path d="M262.881 164.331L270.501 173.377L279.544 165.762L271.927 156.714L262.881 164.331Z" fill="#FBB315"/>
<path d="M47.0781 270.245L54.6981 279.29L63.7433 271.673L56.1259 262.628L47.0781 270.245Z" fill="#FBB315"/>
<path d="M401.817 192.276L392.772 199.891L400.389 208.936L409.435 201.321L401.817 192.276Z" fill="#FBB315"/>
<path d="M288.398 196.626C283.486 196.626 283.478 204.261 288.398 204.261C293.31 204.261 293.32 196.626 288.398 196.626Z" fill="white"/>
<path d="M96.3351 172.605C91.2551 172.605 86.4951 171.645 82.0551 169.725C81.5751 169.525 81.1751 169.205 80.8551 168.765C80.5351 168.285 80.3751 167.785 80.3751 167.265C80.3751 166.585 80.5951 166.005 81.0351 165.525C81.5151 165.005 82.1151 164.745 82.8351 164.745C83.2351 164.745 83.6151 164.825 83.9751 164.985C87.6551 166.625 91.5951 167.445 95.7951 167.445C102.795 167.445 106.295 165.145 106.295 160.545C106.295 159.345 105.835 158.345 104.915 157.545C104.035 156.745 102.935 156.125 101.615 155.685C100.295 155.205 98.4151 154.645 95.9751 154.005C92.7351 153.165 90.1151 152.365 88.1151 151.605C86.1151 150.805 84.3951 149.625 82.9551 148.065C81.5151 146.505 80.7951 144.425 80.7951 141.825C80.7951 139.545 81.3951 137.485 82.5951 135.645C83.7951 133.765 85.5551 132.285 87.8751 131.205C90.2351 130.085 93.0551 129.525 96.3351 129.525C100.735 129.525 104.715 130.185 108.275 131.505C109.395 131.905 109.955 132.705 109.955 133.905C109.955 134.545 109.735 135.125 109.295 135.645C108.855 136.165 108.275 136.425 107.555 136.425C107.315 136.425 106.995 136.345 106.595 136.185C103.475 135.105 100.255 134.565 96.9351 134.565C93.7751 134.565 91.1951 135.165 89.1951 136.365C87.2351 137.565 86.2551 139.245 86.2551 141.405C86.2551 142.845 86.7151 144.025 87.6351 144.945C88.5951 145.825 89.7751 146.525 91.1751 147.045C92.6151 147.525 94.5551 148.045 96.9951 148.605C100.155 149.365 102.695 150.125 104.615 150.885C106.575 151.645 108.235 152.825 109.595 154.425C110.995 156.025 111.695 158.185 111.695 160.905C111.695 163.145 111.055 165.165 109.775 166.965C108.495 168.725 106.695 170.105 104.375 171.105C102.055 172.105 99.3751 172.605 96.3351 172.605ZM133.679 172.605C129.759 172.605 126.339 171.085 123.419 168.045V169.605C123.419 170.365 123.139 171.005 122.579 171.525C122.059 172.045 121.419 172.305 120.659 172.305C119.899 172.305 119.259 172.045 118.739 171.525C118.219 171.005 117.959 170.365 117.959 169.605V130.665C117.959 129.905 118.219 129.265 118.739 128.745C119.259 128.185 119.899 127.905 120.659 127.905C121.459 127.905 122.119 128.165 122.639 128.685C123.159 129.205 123.419 129.865 123.419 130.665V145.365C126.339 142.325 129.759 140.805 133.679 140.805C136.159 140.805 138.499 141.445 140.699 142.725C142.939 143.965 144.739 145.805 146.099 148.245C147.499 150.645 148.199 153.465 148.199 156.705C148.199 159.945 147.499 162.785 146.099 165.225C144.739 167.625 142.939 169.465 140.699 170.745C138.499 171.985 136.159 172.605 133.679 172.605ZM132.899 167.505C135.859 167.505 138.239 166.565 140.039 164.685C141.839 162.805 142.739 160.145 142.739 156.705C142.739 153.265 141.839 150.605 140.039 148.725C138.239 146.845 135.859 145.905 132.899 145.905C131.059 145.905 129.319 146.325 127.679 147.165C126.079 147.965 124.659 149.045 123.419 150.405V163.005C124.659 164.365 126.079 165.465 127.679 166.305C129.319 167.105 131.059 167.505 132.899 167.505ZM157.911 172.305C157.151 172.305 156.511 172.045 155.991 171.525C155.471 171.005 155.211 170.365 155.211 169.605V130.665C155.211 129.905 155.471 129.265 155.991 128.745C156.511 128.185 157.151 127.905 157.911 127.905C158.711 127.905 159.371 128.165 159.891 128.685C160.411 129.205 160.671 129.865 160.671 130.665V169.605C160.671 170.365 160.391 171.005 159.831 171.525C159.311 172.045 158.671 172.305 157.911 172.305ZM183.232 172.605C178.352 172.605 174.532 171.225 171.772 168.465C169.052 165.665 167.692 161.745 167.692 156.705C167.692 153.865 168.212 151.245 169.252 148.845C170.292 146.445 171.892 144.505 174.052 143.025C176.212 141.545 178.872 140.805 182.032 140.805C184.992 140.805 187.552 141.505 189.712 142.905C191.872 144.265 193.512 146.105 194.632 148.425C195.752 150.705 196.312 153.205 196.312 155.925C196.312 156.685 196.052 157.325 195.532 157.845C195.052 158.365 194.392 158.625 193.552 158.625H173.212C173.532 161.425 174.572 163.605 176.332 165.165C178.092 166.725 180.552 167.505 183.712 167.505C185.392 167.505 186.852 167.345 188.092 167.025C189.372 166.705 190.612 166.245 191.812 165.645C192.132 165.485 192.492 165.405 192.892 165.405C193.532 165.405 194.092 165.625 194.572 166.065C195.052 166.505 195.292 167.065 195.292 167.745C195.292 168.625 194.772 169.365 193.732 169.965C192.172 170.845 190.632 171.505 189.112 171.945C187.592 172.385 185.632 172.605 183.232 172.605ZM190.912 154.185C190.792 152.225 190.272 150.585 189.352 149.265C188.472 147.945 187.372 146.985 186.052 146.385C184.732 145.745 183.392 145.425 182.032 145.425C180.672 145.425 179.332 145.745 178.012 146.385C176.692 146.985 175.592 147.945 174.712 149.265C173.832 150.585 173.332 152.225 173.212 154.185H190.912ZM205.636 172.305C204.876 172.305 204.236 172.045 203.716 171.525C203.196 171.005 202.936 170.365 202.936 169.605V143.865C202.936 143.105 203.196 142.465 203.716 141.945C204.236 141.385 204.876 141.105 205.636 141.105C206.396 141.105 207.036 141.385 207.556 141.945C208.116 142.465 208.396 143.105 208.396 143.865V146.325C209.916 144.645 211.556 143.305 213.316 142.305C215.076 141.305 217.156 140.805 219.556 140.805C221.756 140.805 223.656 141.325 225.256 142.365C226.896 143.405 228.136 144.825 228.976 146.625C229.856 148.425 230.296 150.405 230.296 152.565V169.605C230.296 170.365 230.016 171.005 229.456 171.525C228.936 172.045 228.296 172.305 227.536 172.305C226.776 172.305 226.136 172.045 225.616 171.525C225.096 171.005 224.836 170.365 224.836 169.605V153.165C224.836 148.285 222.636 145.845 218.236 145.845C216.236 145.845 214.436 146.365 212.836 147.405C211.276 148.445 209.796 149.845 208.396 151.605V169.605C208.396 170.365 208.116 171.005 207.556 171.525C207.036 172.045 206.396 172.305 205.636 172.305ZM251.559 172.605C249.079 172.605 246.719 171.985 244.479 170.745C242.279 169.465 240.479 167.625 239.079 165.225C237.719 162.785 237.039 159.945 237.039 156.705C237.039 153.465 237.719 150.645 239.079 148.245C240.479 145.805 242.279 143.965 244.479 142.725C246.719 141.445 249.079 140.805 251.559 140.805C255.479 140.805 258.899 142.325 261.819 145.365V130.665C261.819 129.865 262.079 129.205 262.599 128.685C263.159 128.165 263.819 127.905 264.579 127.905C265.339 127.905 265.979 128.185 266.499 128.745C267.019 129.265 267.279 129.905 267.279 130.665V169.605C267.279 170.365 267.019 171.005 266.499 171.525C265.979 172.045 265.339 172.305 264.579 172.305C263.819 172.305 263.159 172.045 262.599 171.525C262.079 171.005 261.819 170.365 261.819 169.605V168.045C258.899 171.085 255.479 172.605 251.559 172.605ZM252.339 167.505C254.179 167.505 255.899 167.105 257.499 166.305C259.139 165.465 260.579 164.365 261.819 163.005V150.405C260.579 149.045 259.139 147.965 257.499 147.165C255.899 146.325 254.179 145.905 252.339 145.905C249.379 145.905 246.999 146.845 245.199 148.725C243.399 150.605 242.499 153.265 242.499 156.705C242.499 160.145 243.399 162.805 245.199 164.685C246.999 166.565 249.379 167.505 252.339 167.505ZM278.73 135.165C277.89 135.165 277.17 134.865 276.57 134.265C275.97 133.665 275.67 132.945 275.67 132.105V131.865C275.67 131.025 275.97 130.305 276.57 129.705C277.17 129.105 277.89 128.805 278.73 128.805H279.09C279.93 128.805 280.65 129.105 281.25 129.705C281.85 130.305 282.15 131.025 282.15 131.865V132.105C282.15 132.945 281.85 133.665 281.25 134.265C280.65 134.865 279.93 135.165 279.09 135.165H278.73ZM278.85 172.305C278.09 172.305 277.45 172.045 276.93 171.525C276.41 171.005 276.15 170.365 276.15 169.605V143.865C276.15 143.105 276.41 142.465 276.93 141.945C277.45 141.385 278.09 141.105 278.85 141.105C279.65 141.105 280.31 141.365 280.83 141.885C281.35 142.405 281.61 143.065 281.61 143.865V169.605C281.61 170.365 281.33 171.005 280.77 171.525C280.25 172.045 279.61 172.305 278.85 172.305ZM303.152 172.605C300.672 172.605 298.312 171.985 296.072 170.745C293.872 169.465 292.072 167.625 290.672 165.225C289.312 162.785 288.632 159.945 288.632 156.705C288.632 153.465 289.312 150.645 290.672 148.245C292.072 145.805 293.872 143.965 296.072 142.725C298.312 141.445 300.672 140.805 303.152 140.805C307.072 140.805 310.492 142.325 313.412 145.365V130.665C313.412 129.865 313.672 129.205 314.192 128.685C314.752 128.165 315.412 127.905 316.172 127.905C316.932 127.905 317.572 128.185 318.092 128.745C318.612 129.265 318.872 129.905 318.872 130.665V169.605C318.872 170.365 318.612 171.005 318.092 171.525C317.572 172.045 316.932 172.305 316.172 172.305C315.412 172.305 314.752 172.045 314.192 171.525C313.672 171.005 313.412 170.365 313.412 169.605V168.045C310.492 171.085 307.072 172.605 303.152 172.605ZM303.932 167.505C305.772 167.505 307.492 167.105 309.092 166.305C310.732 165.465 312.172 164.365 313.412 163.005V150.405C312.172 149.045 310.732 147.965 309.092 147.165C307.492 146.325 305.772 145.905 303.932 145.905C300.972 145.905 298.592 146.845 296.792 148.725C294.992 150.605 294.092 153.265 294.092 156.705C294.092 160.145 294.992 162.805 296.792 164.685C298.592 166.565 300.972 167.505 303.932 167.505Z" fill="#221E55"/>
<path d="M82.0551 169.725L82.2536 169.266L82.2474 169.263L82.0551 169.725ZM80.8551 168.765L80.4391 169.042L80.4447 169.051L80.4507 169.059L80.8551 168.765ZM81.0351 165.525L80.6677 165.186L80.6665 165.187L81.0351 165.525ZM83.9751 164.985L84.1786 164.528L84.1782 164.528L83.9751 164.985ZM104.915 157.545L104.579 157.915L104.587 157.922L104.915 157.545ZM101.615 155.685L101.444 156.155L101.457 156.159L101.615 155.685ZM95.9751 154.005L96.1019 153.521L96.1006 153.521L95.9751 154.005ZM88.1151 151.605L87.9294 152.069L87.9375 152.072L88.1151 151.605ZM82.9551 148.065L82.5877 148.404L82.5877 148.404L82.9551 148.065ZM82.5951 135.645L83.0139 135.918L83.0165 135.914L82.5951 135.645ZM87.8751 131.205L88.0861 131.658L88.0895 131.656L87.8751 131.205ZM108.275 131.505L108.101 131.974L108.107 131.976L108.275 131.505ZM109.295 135.645L109.677 135.968L109.677 135.968L109.295 135.645ZM106.595 136.185L106.781 135.721L106.77 135.716L106.759 135.712L106.595 136.185ZM89.1951 136.365L88.9378 135.936L88.934 135.938L89.1951 136.365ZM87.6351 144.945L87.2815 145.298L87.2892 145.306L87.2972 145.313L87.6351 144.945ZM91.1751 147.045L91.001 147.513L91.0089 147.516L91.017 147.519L91.1751 147.045ZM96.9951 148.605L97.112 148.119L97.1069 148.117L96.9951 148.605ZM104.615 150.885L104.431 151.35L104.434 151.351L104.615 150.885ZM109.595 154.425L109.214 154.749L109.219 154.754L109.595 154.425ZM109.775 166.965L110.179 167.259L110.183 167.255L109.775 166.965ZM104.375 171.105L104.573 171.564L104.573 171.564L104.375 171.105ZM96.3351 172.105C91.3199 172.105 86.6278 171.157 82.2535 169.266L81.8566 170.184C86.3624 172.132 91.1903 173.105 96.3351 173.105V172.105ZM82.2474 169.263C81.8561 169.1 81.5281 168.84 81.2595 168.471L80.4507 169.059C80.8221 169.569 81.2941 169.949 81.8628 170.186L82.2474 169.263ZM81.2711 168.487C80.9996 168.08 80.8751 167.675 80.8751 167.265H79.8751C79.8751 167.894 80.0705 168.489 80.4391 169.042L81.2711 168.487ZM80.8751 167.265C80.8751 166.704 81.0522 166.246 81.4037 165.863L80.6665 165.187C80.1379 165.764 79.8751 166.466 79.8751 167.265H80.8751ZM81.4025 165.864C81.786 165.448 82.2519 165.245 82.8351 165.245V164.245C81.9783 164.245 81.2442 164.561 80.6677 165.186L81.4025 165.864ZM82.8351 165.245C83.1662 165.245 83.4769 165.311 83.772 165.442L84.1782 164.528C83.7532 164.339 83.3039 164.245 82.8351 164.245V165.245ZM83.7716 165.441C87.5183 167.111 91.528 167.945 95.7951 167.945V166.945C91.6622 166.945 87.7918 166.138 84.1786 164.528L83.7716 165.441ZM95.7951 167.945C99.334 167.945 102.075 167.366 103.945 166.138C105.851 164.885 106.795 162.994 106.795 160.545H105.795C105.795 162.696 104.989 164.255 103.395 165.302C101.765 166.373 99.2562 166.945 95.7951 166.945V167.945ZM106.795 160.545C106.795 159.197 106.27 158.061 105.243 157.167L104.587 157.922C105.4 158.629 105.795 159.492 105.795 160.545H106.795ZM105.251 157.175C104.312 156.321 103.148 155.669 101.773 155.21L101.457 156.159C102.722 156.581 103.758 157.169 104.579 157.915L105.251 157.175ZM101.786 155.215C100.444 154.727 98.5471 154.162 96.1019 153.521L95.8482 154.488C98.283 155.127 100.146 155.682 101.444 156.155L101.786 155.215ZM96.1006 153.521C92.8696 152.683 90.2689 151.888 88.2927 151.137L87.9375 152.072C89.9612 152.841 92.6006 153.646 95.8496 154.489L96.1006 153.521ZM88.3008 151.141C86.3689 150.368 84.7112 149.23 83.3225 147.726L82.5877 148.404C84.0789 150.019 85.8613 151.242 87.9294 152.069L88.3008 151.141ZM83.3225 147.726C81.9859 146.278 81.2951 144.329 81.2951 141.825H80.2951C80.2951 144.521 81.0442 146.732 82.5877 148.404L83.3225 147.726ZM81.2951 141.825C81.2951 139.638 81.869 137.673 83.0139 135.918L82.1763 135.372C80.9212 137.296 80.2951 139.452 80.2951 141.825H81.2951ZM83.0165 135.914C84.1581 134.125 85.8393 132.704 88.0861 131.658L87.6641 130.751C85.2708 131.866 83.432 133.404 82.1736 135.376L83.0165 135.914ZM88.0895 131.656C90.3676 130.575 93.1108 130.025 96.3351 130.025V129.025C92.9994 129.025 90.1026 129.594 87.6607 130.753L88.0895 131.656ZM96.3351 130.025C100.685 130.025 104.605 130.677 108.101 131.974L108.449 131.036C104.825 129.692 100.785 129.025 96.3351 129.025V130.025ZM108.107 131.976C108.591 132.148 108.917 132.393 109.125 132.691C109.334 132.99 109.455 133.384 109.455 133.905H110.455C110.455 133.226 110.296 132.62 109.945 132.118C109.593 131.616 109.079 131.261 108.443 131.034L108.107 131.976ZM109.455 133.905C109.455 134.419 109.282 134.886 108.913 135.322L109.677 135.968C110.188 135.364 110.455 134.671 110.455 133.905H109.455ZM108.913 135.322C108.574 135.722 108.138 135.925 107.555 135.925V136.925C108.413 136.925 109.136 136.607 109.677 135.968L108.913 135.322ZM107.555 135.925C107.411 135.925 107.161 135.873 106.781 135.721L106.409 136.649C106.829 136.817 107.22 136.925 107.555 136.925V135.925ZM106.759 135.712C103.586 134.614 100.31 134.065 96.9351 134.065V135.065C100.2 135.065 103.364 135.596 106.432 136.657L106.759 135.712ZM96.9351 134.065C93.7155 134.065 91.0384 134.676 88.9378 135.936L89.4523 136.794C91.3518 135.654 93.8347 135.065 96.9351 135.065V134.065ZM88.934 135.938C86.8371 137.222 85.7551 139.058 85.7551 141.405H86.7551C86.7551 139.432 87.6331 137.907 89.4562 136.791L88.934 135.938ZM85.7551 141.405C85.7551 142.962 86.2573 144.274 87.2815 145.298L87.9886 144.591C87.1728 143.775 86.7551 142.728 86.7551 141.405H85.7551ZM87.2972 145.313C88.3113 146.243 89.5493 146.974 91.001 147.513L91.3492 146.576C90.0009 146.075 88.8789 145.407 87.9729 144.576L87.2972 145.313ZM91.017 147.519C92.4787 148.006 94.4362 148.53 96.8832 149.092L97.1069 148.117C94.6739 147.559 92.7514 147.043 91.3332 146.57L91.017 147.519ZM96.8782 149.091C100.027 149.848 102.542 150.602 104.431 151.35L104.799 150.42C102.849 149.648 100.283 148.881 97.112 148.119L96.8782 149.091ZM104.434 151.351C106.317 152.081 107.908 153.212 109.214 154.749L109.976 154.101C108.562 152.438 106.833 151.209 104.796 150.419L104.434 151.351ZM109.219 154.754C110.519 156.24 111.195 158.271 111.195 160.905H112.195C112.195 158.098 111.471 155.81 109.971 154.096L109.219 154.754ZM111.195 160.905C111.195 163.042 110.587 164.961 109.368 166.675L110.183 167.255C111.524 165.369 112.195 163.247 112.195 160.905H111.195ZM109.371 166.671C108.151 168.347 106.428 169.675 104.177 170.646L104.573 171.564C106.962 170.534 108.839 169.102 110.179 167.259L109.371 166.671ZM104.177 170.646C101.931 171.614 99.3206 172.105 96.3351 172.105V173.105C99.4296 173.105 102.179 172.596 104.573 171.564L104.177 170.646ZM123.419 168.045L123.78 167.698L122.919 166.802V168.045H123.419ZM122.579 171.525L122.239 171.158L122.232 171.165L122.225 171.171L122.579 171.525ZM118.739 171.525L119.093 171.171L119.093 171.171L118.739 171.525ZM118.739 128.745L119.093 129.098L119.099 129.092L119.105 129.085L118.739 128.745ZM122.639 128.685L122.993 128.331L122.993 128.331L122.639 128.685ZM123.419 145.365H122.919V146.607L123.78 145.711L123.419 145.365ZM140.699 142.725L140.447 143.157L140.457 143.162L140.699 142.725ZM146.099 148.245L145.662 148.488L145.667 148.497L146.099 148.245ZM146.099 165.225L145.665 164.976L145.664 164.978L146.099 165.225ZM140.699 170.745L140.945 171.18L140.947 171.179L140.699 170.745ZM140.039 164.685L140.4 165.031L140.4 165.031L140.039 164.685ZM140.039 148.725L140.4 148.379L140.039 148.725ZM127.679 147.165L127.903 147.612L127.907 147.61L127.679 147.165ZM123.419 150.405L123.05 150.068L122.919 150.211V150.405H123.419ZM123.419 163.005H122.919V163.198L123.05 163.342L123.419 163.005ZM127.679 166.305L127.447 166.747L127.453 166.751L127.46 166.754L127.679 166.305ZM133.679 172.105C129.906 172.105 126.613 170.648 123.78 167.698L123.058 168.391C126.065 171.521 129.612 173.105 133.679 173.105V172.105ZM122.919 168.045V169.605H123.919V168.045H122.919ZM122.919 169.605C122.919 170.225 122.698 170.732 122.239 171.158L122.919 171.891C123.58 171.277 123.919 170.505 123.919 169.605H122.919ZM122.225 171.171C121.803 171.594 121.291 171.805 120.659 171.805V172.805C121.547 172.805 122.315 172.496 122.933 171.878L122.225 171.171ZM120.659 171.805C120.027 171.805 119.515 171.594 119.093 171.171L118.385 171.878C119.003 172.496 119.771 172.805 120.659 172.805V171.805ZM119.093 171.171C118.67 170.748 118.459 170.237 118.459 169.605H117.459C117.459 170.492 117.768 171.261 118.385 171.878L119.093 171.171ZM118.459 169.605V130.665H117.459V169.605H118.459ZM118.459 130.665C118.459 130.032 118.67 129.521 119.093 129.098L118.385 128.391C117.768 129.008 117.459 129.777 117.459 130.665H118.459ZM119.105 129.085C119.531 128.626 120.039 128.405 120.659 128.405V127.405C119.759 127.405 118.987 127.743 118.373 128.405L119.105 129.085ZM120.659 128.405C121.339 128.405 121.868 128.621 122.285 129.038L122.993 128.331C122.37 127.709 121.579 127.405 120.659 127.405V128.405ZM122.285 129.038C122.703 129.456 122.919 129.985 122.919 130.665H123.919C123.919 129.745 123.615 128.954 122.993 128.331L122.285 129.038ZM122.919 130.665V145.365H123.919V130.665H122.919ZM123.78 145.711C126.613 142.761 129.906 141.305 133.679 141.305V140.305C129.612 140.305 126.065 141.888 123.058 145.018L123.78 145.711ZM133.679 141.305C136.068 141.305 138.322 141.92 140.448 143.157L140.95 142.293C138.676 140.969 136.25 140.305 133.679 140.305V141.305ZM140.457 143.162C142.608 144.353 144.343 146.122 145.662 148.488L146.536 148.001C145.135 145.487 143.27 143.577 140.941 142.287L140.457 143.162ZM145.667 148.497C147.016 150.808 147.699 153.538 147.699 156.705H148.699C148.699 153.391 147.982 150.481 146.531 147.993L145.667 148.497ZM147.699 156.705C147.699 159.871 147.016 162.623 145.665 164.976L146.533 165.474C147.982 162.947 148.699 160.019 148.699 156.705H147.699ZM145.664 164.978C144.345 167.306 142.607 169.078 140.451 170.311L140.947 171.179C143.271 169.851 145.133 167.944 146.534 165.471L145.664 164.978ZM140.453 170.309C138.327 171.508 136.071 172.105 133.679 172.105V173.105C136.247 173.105 138.671 172.462 140.945 171.18L140.453 170.309ZM132.899 168.005C135.975 168.005 138.493 167.023 140.4 165.031L139.678 164.339C137.985 166.107 135.743 167.005 132.899 167.005V168.005ZM140.4 165.031C142.315 163.031 143.239 160.231 143.239 156.705H142.239C142.239 160.059 141.363 162.579 139.678 164.339L140.4 165.031ZM143.239 156.705C143.239 153.179 142.315 150.379 140.4 148.379L139.678 149.071C141.363 150.831 142.239 153.351 142.239 156.705H143.239ZM140.4 148.379C138.493 146.387 135.975 145.405 132.899 145.405V146.405C135.743 146.405 137.985 147.303 139.678 149.071L140.4 148.379ZM132.899 145.405C130.98 145.405 129.161 145.844 127.451 146.72L127.907 147.61C129.476 146.806 131.138 146.405 132.899 146.405V145.405ZM127.455 146.718C125.799 147.546 124.33 148.664 123.05 150.068L123.788 150.742C124.988 149.426 126.359 148.384 127.903 147.612L127.455 146.718ZM122.919 150.405V163.005H123.919V150.405H122.919ZM123.05 163.342C124.328 164.744 125.794 165.88 127.447 166.747L127.911 165.862C126.364 165.05 124.99 163.986 123.788 162.668L123.05 163.342ZM127.46 166.754C129.169 167.588 130.984 168.005 132.899 168.005V167.005C131.134 167.005 129.469 166.622 127.898 165.855L127.46 166.754ZM155.991 171.525L156.344 171.171L156.344 171.171L155.991 171.525ZM155.991 128.745L156.344 129.098L156.351 129.092L156.357 129.085L155.991 128.745ZM159.891 128.685L160.244 128.331L160.244 128.331L159.891 128.685ZM159.831 171.525L159.49 171.158L159.484 171.165L159.477 171.171L159.831 171.525ZM157.911 171.805C157.278 171.805 156.767 171.594 156.344 171.171L155.637 171.878C156.254 172.496 157.023 172.805 157.911 172.805V171.805ZM156.344 171.171C155.921 170.748 155.711 170.237 155.711 169.605H154.711C154.711 170.492 155.02 171.261 155.637 171.878L156.344 171.171ZM155.711 169.605V130.665H154.711V169.605H155.711ZM155.711 130.665C155.711 130.032 155.921 129.521 156.344 129.098L155.637 128.391C155.02 129.008 154.711 129.777 154.711 130.665H155.711ZM156.357 129.085C156.783 128.626 157.29 128.405 157.911 128.405V127.405C157.011 127.405 156.238 127.743 155.624 128.405L156.357 129.085ZM157.911 128.405C158.591 128.405 159.119 128.621 159.537 129.038L160.244 128.331C159.622 127.709 158.83 127.405 157.911 127.405V128.405ZM159.537 129.038C159.955 129.456 160.171 129.985 160.171 130.665H161.171C161.171 129.745 160.867 128.954 160.244 128.331L159.537 129.038ZM160.171 130.665V169.605H161.171V130.665H160.171ZM160.171 169.605C160.171 170.225 159.949 170.732 159.49 171.158L160.171 171.891C160.832 171.277 161.171 170.505 161.171 169.605H160.171ZM159.477 171.171C159.054 171.594 158.543 171.805 157.911 171.805V172.805C158.798 172.805 159.567 172.496 160.184 171.878L159.477 171.171ZM171.772 168.465L171.413 168.813L171.418 168.818L171.772 168.465ZM174.052 143.025L174.335 143.437L174.335 143.437L174.052 143.025ZM189.712 142.905L189.44 143.324L189.446 143.328L189.712 142.905ZM194.632 148.425L194.182 148.642L194.183 148.645L194.632 148.425ZM195.532 157.845L195.178 157.491L195.171 157.498L195.165 157.506L195.532 157.845ZM173.212 158.625V158.125H172.652L172.715 158.682L173.212 158.625ZM176.332 165.165L176 165.539L176 165.539L176.332 165.165ZM188.092 167.025L187.971 166.54L187.967 166.541L188.092 167.025ZM191.812 165.645L191.588 165.198L191.588 165.198L191.812 165.645ZM194.572 166.065L194.91 165.696L194.572 166.065ZM193.732 169.965L193.978 170.4L193.982 170.398L193.732 169.965ZM189.112 171.945L189.251 172.425L189.251 172.425L189.112 171.945ZM190.912 154.185V154.685H191.444L191.411 154.154L190.912 154.185ZM189.352 149.265L188.936 149.542L188.942 149.551L189.352 149.265ZM186.052 146.385L185.834 146.835L185.845 146.84L186.052 146.385ZM178.012 146.385L178.219 146.84L178.23 146.835L178.012 146.385ZM174.712 149.265L175.128 149.542L175.128 149.542L174.712 149.265ZM173.212 154.185L172.713 154.154L172.68 154.685H173.212V154.185ZM183.232 172.105C178.45 172.105 174.77 170.755 172.126 168.111L171.418 168.818C174.294 171.694 178.254 173.105 183.232 173.105V172.105ZM172.131 168.116C169.525 165.435 168.192 161.654 168.192 156.705H167.192C167.192 161.835 168.578 165.895 171.413 168.813L172.131 168.116ZM168.192 156.705C168.192 153.927 168.7 151.376 169.711 149.044L168.793 148.646C167.724 151.114 167.192 153.802 167.192 156.705H168.192ZM169.711 149.044C170.713 146.73 172.252 144.864 174.335 143.437L173.769 142.612C171.532 144.145 169.871 146.159 168.793 148.646L169.711 149.044ZM174.335 143.437C176.395 142.025 178.952 141.305 182.032 141.305V140.305C178.792 140.305 176.028 141.064 173.769 142.612L174.335 143.437ZM182.032 141.305C184.91 141.305 187.373 141.984 189.44 143.324L189.984 142.485C187.731 141.025 185.074 140.305 182.032 140.305V141.305ZM189.446 143.328C191.525 144.637 193.102 146.406 194.182 148.642L195.082 148.207C193.922 145.804 192.219 143.892 189.978 142.482L189.446 143.328ZM194.183 148.645C195.267 150.852 195.812 153.276 195.812 155.925H196.812C196.812 153.134 196.237 150.558 195.081 148.204L194.183 148.645ZM195.812 155.925C195.812 156.557 195.601 157.068 195.178 157.491L195.886 158.198C196.503 157.581 196.812 156.812 196.812 155.925H195.812ZM195.165 157.506C194.797 157.904 194.281 158.125 193.552 158.125V159.125C194.503 159.125 195.307 158.826 195.899 158.184L195.165 157.506ZM193.552 158.125H173.212V159.125H193.552V158.125ZM172.715 158.682C173.046 161.578 174.13 163.882 176 165.539L176.664 164.791C175.014 163.328 174.018 161.271 173.709 158.568L172.715 158.682ZM176 165.539C177.879 167.204 180.472 168.005 183.712 168.005V167.005C180.632 167.005 178.305 166.245 176.664 164.791L176 165.539ZM183.712 168.005C185.422 168.005 186.926 167.842 188.217 167.509L187.967 166.541C186.778 166.847 185.362 167.005 183.712 167.005V168.005ZM188.213 167.51C189.529 167.181 190.803 166.708 192.036 166.092L191.588 165.198C190.42 165.782 189.215 166.229 187.971 166.54L188.213 167.51ZM192.036 166.092C192.278 165.971 192.56 165.905 192.892 165.905V164.905C192.424 164.905 191.986 164.999 191.588 165.198L192.036 166.092ZM192.892 165.905C193.404 165.905 193.845 166.076 194.234 166.433L194.91 165.696C194.339 165.173 193.659 164.905 192.892 164.905V165.905ZM194.234 166.433C194.606 166.774 194.792 167.198 194.792 167.745H195.792C195.792 166.932 195.498 166.236 194.91 165.696L194.234 166.433ZM194.792 167.745C194.792 168.383 194.431 168.984 193.482 169.532L193.982 170.398C195.113 169.745 195.792 168.866 195.792 167.745H194.792ZM193.486 169.529C191.956 170.393 190.451 171.037 188.973 171.464L189.251 172.425C190.813 171.973 192.388 171.297 193.978 170.4L193.486 169.529ZM188.973 171.464C187.515 171.887 185.607 172.105 183.232 172.105V173.105C185.657 173.105 187.669 172.883 189.251 172.425L188.973 171.464ZM191.411 154.154C191.287 152.123 190.745 150.389 189.762 148.979L188.942 149.551C189.799 150.78 190.297 152.327 190.413 154.215L191.411 154.154ZM189.768 148.987C188.841 147.597 187.672 146.572 186.259 145.93L185.845 146.84C187.072 147.398 188.103 148.292 188.936 149.542L189.768 148.987ZM186.27 145.935C184.888 145.265 183.473 144.925 182.032 144.925V145.925C183.311 145.925 184.576 146.225 185.834 146.835L186.27 145.935ZM182.032 144.925C180.591 144.925 179.176 145.265 177.794 145.935L178.23 146.835C179.488 146.225 180.753 145.925 182.032 145.925V144.925ZM177.805 145.93C176.392 146.572 175.223 147.597 174.296 148.987L175.128 149.542C175.961 148.292 176.992 147.398 178.219 146.84L177.805 145.93ZM174.296 148.987C173.357 150.396 172.837 152.127 172.713 154.154L173.711 154.215C173.827 152.323 174.307 150.773 175.128 149.542L174.296 148.987ZM173.212 154.685H190.912V153.685H173.212V154.685ZM203.716 171.525L204.07 171.171L204.07 171.171L203.716 171.525ZM203.716 141.945L204.07 142.298L204.076 142.292L204.083 142.285L203.716 141.945ZM207.556 141.945L207.19 142.285L207.203 142.299L207.216 142.311L207.556 141.945ZM208.396 146.325H207.896V147.623L208.767 146.66L208.396 146.325ZM213.316 142.305L213.563 142.739L213.316 142.305ZM225.256 142.365L224.984 142.784L224.989 142.787L225.256 142.365ZM228.976 146.625L228.523 146.836L228.527 146.844L228.976 146.625ZM229.456 171.525L229.116 171.158L229.109 171.165L229.103 171.171L229.456 171.525ZM225.616 171.525L225.263 171.878L225.263 171.878L225.616 171.525ZM212.836 147.405L212.564 146.986L212.559 146.989L212.836 147.405ZM208.396 151.605L208.005 151.293L207.896 151.43V151.605H208.396ZM207.556 171.525L207.216 171.158L207.209 171.165L207.203 171.171L207.556 171.525ZM205.636 171.805C205.004 171.805 204.493 171.594 204.07 171.171L203.363 171.878C203.98 172.496 204.749 172.805 205.636 172.805V171.805ZM204.07 171.171C203.647 170.748 203.436 170.237 203.436 169.605H202.436C202.436 170.492 202.746 171.261 203.363 171.878L204.07 171.171ZM203.436 169.605V143.865H202.436V169.605H203.436ZM203.436 143.865C203.436 143.232 203.647 142.721 204.07 142.298L203.363 141.591C202.746 142.208 202.436 142.977 202.436 143.865H203.436ZM204.083 142.285C204.509 141.826 205.016 141.605 205.636 141.605V140.605C204.736 140.605 203.964 140.943 203.35 141.605L204.083 142.285ZM205.636 141.605C206.256 141.605 206.764 141.826 207.19 142.285L207.923 141.605C207.309 140.943 206.536 140.605 205.636 140.605V141.605ZM207.216 142.311C207.675 142.737 207.896 143.245 207.896 143.865H208.896C208.896 142.965 208.558 142.192 207.897 141.578L207.216 142.311ZM207.896 143.865V146.325H208.896V143.865H207.896ZM208.767 146.66C210.256 145.015 211.855 143.71 213.563 142.739L213.069 141.87C211.258 142.899 209.577 144.274 208.026 145.989L208.767 146.66ZM213.563 142.739C215.235 141.79 217.227 141.305 219.556 141.305V140.305C217.086 140.305 214.918 140.82 213.069 141.87L213.563 142.739ZM219.556 141.305C221.675 141.305 223.477 141.804 224.984 142.784L225.529 141.946C223.836 140.845 221.838 140.305 219.556 140.305V141.305ZM224.989 142.787C226.546 143.775 227.723 145.121 228.523 146.836L229.429 146.413C228.55 144.529 227.247 143.035 225.524 141.943L224.989 142.787ZM228.527 146.844C229.371 148.571 229.796 150.475 229.796 152.565H230.796C230.796 150.335 230.342 148.279 229.426 146.405L228.527 146.844ZM229.796 152.565V169.605H230.796V152.565H229.796ZM229.796 169.605C229.796 170.225 229.575 170.732 229.116 171.158L229.797 171.891C230.458 171.277 230.796 170.505 230.796 169.605H229.796ZM229.103 171.171C228.68 171.594 228.169 171.805 227.536 171.805V172.805C228.424 172.805 229.193 172.496 229.81 171.878L229.103 171.171ZM227.536 171.805C226.904 171.805 226.393 171.594 225.97 171.171L225.263 171.878C225.88 172.496 226.649 172.805 227.536 172.805V171.805ZM225.97 171.171C225.547 170.748 225.336 170.237 225.336 169.605H224.336C224.336 170.492 224.646 171.261 225.263 171.878L225.97 171.171ZM225.336 169.605V153.165H224.336V169.605H225.336ZM225.336 153.165C225.336 150.66 224.773 148.688 223.558 147.34C222.334 145.982 220.528 145.345 218.236 145.345V146.345C220.345 146.345 221.839 146.927 222.815 148.01C223.8 149.102 224.336 150.79 224.336 153.165H225.336ZM218.236 145.345C216.144 145.345 214.249 145.89 212.564 146.986L213.109 147.824C214.624 146.839 216.328 146.345 218.236 146.345V145.345ZM212.559 146.989C210.948 148.063 209.431 149.501 208.005 151.293L208.788 151.916C210.162 150.189 211.604 148.827 213.114 147.821L212.559 146.989ZM207.896 151.605V169.605H208.896V151.605H207.896ZM207.896 169.605C207.896 170.225 207.675 170.732 207.216 171.158L207.897 171.891C208.558 171.277 208.896 170.505 208.896 169.605H207.896ZM207.203 171.171C206.78 171.594 206.269 171.805 205.636 171.805V172.805C206.524 172.805 207.293 172.496 207.91 171.878L207.203 171.171ZM244.479 170.745L244.227 171.177L244.237 171.182L244.479 170.745ZM239.079 165.225L238.642 165.468L238.647 165.477L239.079 165.225ZM239.079 148.245L238.645 147.996L238.644 147.998L239.079 148.245ZM244.479 142.725L244.724 143.16L244.727 143.159L244.479 142.725ZM261.819 145.365L261.458 145.711L262.319 146.607V145.365H261.819ZM262.599 128.685L262.259 128.318L262.252 128.325L262.245 128.331L262.599 128.685ZM266.499 128.745L266.132 129.085L266.139 129.092L266.145 129.098L266.499 128.745ZM266.499 171.525L266.852 171.878L266.852 171.878L266.499 171.525ZM262.599 171.525L262.245 171.878L262.252 171.885L262.259 171.891L262.599 171.525ZM261.819 168.045H262.319V166.802L261.458 167.698L261.819 168.045ZM257.499 166.305L257.722 166.752L257.727 166.75L257.499 166.305ZM261.819 163.005L262.188 163.342L262.319 163.198V163.005H261.819ZM261.819 150.405H262.319V150.211L262.188 150.068L261.819 150.405ZM257.499 147.165L257.266 147.607L257.273 147.611L257.28 147.614L257.499 147.165ZM245.199 148.725L245.56 149.071L245.56 149.071L245.199 148.725ZM251.559 172.105C249.166 172.105 246.889 171.508 244.721 170.307L244.237 171.182C246.548 172.462 248.991 173.105 251.559 173.105V172.105ZM244.73 170.313C242.612 169.08 240.871 167.305 239.511 164.973L238.647 165.477C240.086 167.944 241.946 169.85 244.227 171.177L244.73 170.313ZM239.516 164.981C238.203 162.627 237.539 159.873 237.539 156.705H236.539C236.539 160.016 237.234 162.943 238.642 165.468L239.516 164.981ZM237.539 156.705C237.539 153.536 238.203 150.804 239.514 148.491L238.644 147.998C237.234 150.486 236.539 153.394 236.539 156.705H237.539ZM239.513 148.494C240.873 146.123 242.611 144.351 244.724 143.16L244.233 142.289C241.946 143.578 240.085 145.487 238.645 147.996L239.513 148.494ZM244.727 143.159C246.895 141.92 249.169 141.305 251.559 141.305V140.305C248.988 140.305 246.543 140.969 244.231 142.291L244.727 143.159ZM251.559 141.305C255.332 141.305 258.625 142.761 261.458 145.711L262.179 145.018C259.173 141.888 255.626 140.305 251.559 140.305V141.305ZM262.319 145.365V130.665H261.319V145.365H262.319ZM262.319 130.665C262.319 129.985 262.535 129.456 262.952 129.038L262.245 128.331C261.623 128.954 261.319 129.745 261.319 130.665H262.319ZM262.939 129.051C263.407 128.617 263.946 128.405 264.579 128.405V127.405C263.692 127.405 262.911 127.713 262.259 128.318L262.939 129.051ZM264.579 128.405C265.199 128.405 265.706 128.626 266.132 129.085L266.865 128.405C266.251 127.743 265.479 127.405 264.579 127.405V128.405ZM266.145 129.098C266.568 129.521 266.779 130.032 266.779 130.665H267.779C267.779 129.777 267.47 129.008 266.852 128.391L266.145 129.098ZM266.779 130.665V169.605H267.779V130.665H266.779ZM266.779 169.605C266.779 170.237 266.568 170.748 266.145 171.171L266.852 171.878C267.47 171.261 267.779 170.492 267.779 169.605H266.779ZM266.145 171.171C265.723 171.594 265.211 171.805 264.579 171.805V172.805C265.466 172.805 266.235 172.496 266.852 171.878L266.145 171.171ZM264.579 171.805C263.946 171.805 263.407 171.593 262.939 171.158L262.259 171.891C262.911 172.497 263.692 172.805 264.579 172.805V171.805ZM262.952 171.171C262.53 170.748 262.319 170.237 262.319 169.605H261.319C261.319 170.492 261.628 171.261 262.245 171.878L262.952 171.171ZM262.319 169.605V168.045H261.319V169.605H262.319ZM261.458 167.698C258.625 170.648 255.332 172.105 251.559 172.105V173.105C255.626 173.105 259.173 171.521 262.179 168.391L261.458 167.698ZM252.339 168.005C254.254 168.005 256.051 167.588 257.722 166.752L257.275 165.858C255.747 166.622 254.104 167.005 252.339 167.005V168.005ZM257.727 166.75C259.42 165.883 260.908 164.746 262.188 163.342L261.449 162.668C260.25 163.984 258.858 165.047 257.271 165.86L257.727 166.75ZM262.319 163.005V150.405H261.319V163.005H262.319ZM262.188 150.068C260.906 148.662 259.415 147.543 257.718 146.715L257.28 147.614C258.862 148.386 260.252 149.428 261.449 150.742L262.188 150.068ZM257.731 146.722C256.058 145.844 254.258 145.405 252.339 145.405V146.405C254.099 146.405 255.739 146.806 257.266 147.607L257.731 146.722ZM252.339 145.405C249.263 145.405 246.745 146.387 244.838 148.379L245.56 149.071C247.252 147.303 249.495 146.405 252.339 146.405V145.405ZM244.838 148.379C242.923 150.379 241.999 153.179 241.999 156.705H242.999C242.999 153.351 243.875 150.831 245.56 149.071L244.838 148.379ZM241.999 156.705C241.999 160.231 242.923 163.031 244.838 165.031L245.56 164.339C243.875 162.579 242.999 160.059 242.999 156.705H241.999ZM244.838 165.031C246.745 167.023 249.263 168.005 252.339 168.005V167.005C249.495 167.005 247.252 166.107 245.56 164.339L244.838 165.031ZM276.57 134.265L276.217 134.618L276.217 134.618L276.57 134.265ZM281.25 134.265L281.604 134.618L281.604 134.618L281.25 134.265ZM276.93 171.525L277.284 171.171L277.284 171.171L276.93 171.525ZM276.93 141.945L277.284 142.298L277.29 142.292L277.297 142.285L276.93 141.945ZM280.83 141.885L281.184 141.531L280.83 141.885ZM280.77 171.525L280.43 171.158L280.423 171.165L280.417 171.171L280.77 171.525ZM278.73 134.665C278.025 134.665 277.431 134.419 276.924 133.911L276.217 134.618C276.91 135.311 277.756 135.665 278.73 135.665V134.665ZM276.924 133.911C276.417 133.404 276.17 132.811 276.17 132.105H275.17C275.17 133.079 275.524 133.926 276.217 134.618L276.924 133.911ZM276.17 132.105V131.865H275.17V132.105H276.17ZM276.17 131.865C276.17 131.159 276.417 130.566 276.924 130.058L276.217 129.351C275.524 130.044 275.17 130.891 275.17 131.865H276.17ZM276.924 130.058C277.431 129.551 278.025 129.305 278.73 129.305V128.305C277.756 128.305 276.91 128.659 276.217 129.351L276.924 130.058ZM278.73 129.305H279.09V128.305H278.73V129.305ZM279.09 129.305C279.796 129.305 280.39 129.551 280.897 130.058L281.604 129.351C280.911 128.659 280.065 128.305 279.09 128.305V129.305ZM280.897 130.058C281.404 130.566 281.65 131.159 281.65 131.865H282.65C282.65 130.891 282.297 130.044 281.604 129.351L280.897 130.058ZM281.65 131.865V132.105H282.65V131.865H281.65ZM281.65 132.105C281.65 132.811 281.404 133.404 280.897 133.911L281.604 134.618C282.297 133.926 282.65 133.079 282.65 132.105H281.65ZM280.897 133.911C280.39 134.419 279.796 134.665 279.09 134.665V135.665C280.065 135.665 280.911 135.311 281.604 134.618L280.897 133.911ZM279.09 134.665H278.73V135.665H279.09V134.665ZM278.85 171.805C278.218 171.805 277.707 171.594 277.284 171.171L276.577 171.878C277.194 172.496 277.963 172.805 278.85 172.805V171.805ZM277.284 171.171C276.861 170.748 276.65 170.237 276.65 169.605H275.65C275.65 170.492 275.96 171.261 276.577 171.878L277.284 171.171ZM276.65 169.605V143.865H275.65V169.605H276.65ZM276.65 143.865C276.65 143.232 276.861 142.721 277.284 142.298L276.577 141.591C275.96 142.208 275.65 142.977 275.65 143.865H276.65ZM277.297 142.285C277.723 141.826 278.23 141.605 278.85 141.605V140.605C277.95 140.605 277.178 140.943 276.564 141.605L277.297 142.285ZM278.85 141.605C279.531 141.605 280.059 141.821 280.477 142.238L281.184 141.531C280.561 140.909 279.77 140.605 278.85 140.605V141.605ZM280.477 142.238C280.894 142.656 281.11 143.185 281.11 143.865H282.11C282.11 142.945 281.806 142.154 281.184 141.531L280.477 142.238ZM281.11 143.865V169.605H282.11V143.865H281.11ZM281.11 169.605C281.11 170.225 280.889 170.732 280.43 171.158L281.111 171.891C281.772 171.277 282.11 170.505 282.11 169.605H281.11ZM280.417 171.171C279.994 171.594 279.483 171.805 278.85 171.805V172.805C279.738 172.805 280.507 172.496 281.124 171.878L280.417 171.171ZM296.072 170.745L295.82 171.177L295.83 171.182L296.072 170.745ZM290.672 165.225L290.235 165.468L290.24 165.477L290.672 165.225ZM290.672 148.245L290.238 147.996L290.237 147.998L290.672 148.245ZM296.072 142.725L296.317 143.16L296.32 143.159L296.072 142.725ZM313.412 145.365L313.051 145.711L313.912 146.607V145.365H313.412ZM314.192 128.685L313.852 128.318L313.845 128.325L313.838 128.331L314.192 128.685ZM318.092 128.745L317.725 129.085L317.732 129.092L317.738 129.098L318.092 128.745ZM318.092 171.525L318.445 171.878L318.445 171.878L318.092 171.525ZM314.192 171.525L313.838 171.878L313.845 171.885L313.852 171.891L314.192 171.525ZM313.412 168.045H313.912V166.802L313.051 167.698L313.412 168.045ZM309.092 166.305L309.315 166.752L309.32 166.75L309.092 166.305ZM313.412 163.005L313.781 163.342L313.912 163.198V163.005H313.412ZM313.412 150.405H313.912V150.211L313.781 150.068L313.412 150.405ZM309.092 147.165L308.859 147.607L308.866 147.611L308.873 147.614L309.092 147.165ZM296.792 148.725L297.153 149.071L297.153 149.071L296.792 148.725ZM303.152 172.105C300.759 172.105 298.482 171.508 296.314 170.307L295.83 171.182C298.141 172.462 300.584 173.105 303.152 173.105V172.105ZM296.323 170.313C294.205 169.08 292.464 167.305 291.104 164.973L290.24 165.477C291.679 167.944 293.539 169.85 295.82 171.177L296.323 170.313ZM291.109 164.981C289.796 162.627 289.132 159.873 289.132 156.705H288.132C288.132 160.016 288.827 162.943 290.235 165.468L291.109 164.981ZM289.132 156.705C289.132 153.536 289.796 150.804 291.107 148.491L290.237 147.998C288.827 150.486 288.132 153.394 288.132 156.705H289.132ZM291.105 148.494C292.466 146.123 294.204 144.351 296.317 143.16L295.826 142.289C293.539 143.578 291.678 145.487 290.238 147.996L291.105 148.494ZM296.32 143.159C298.487 141.92 300.762 141.305 303.152 141.305V140.305C300.581 140.305 298.136 140.969 295.824 142.291L296.32 143.159ZM303.152 141.305C306.925 141.305 310.218 142.761 313.051 145.711L313.772 145.018C310.766 141.888 307.219 140.305 303.152 140.305V141.305ZM313.912 145.365V130.665H312.912V145.365H313.912ZM313.912 130.665C313.912 129.985 314.128 129.456 314.545 129.038L313.838 128.331C313.216 128.954 312.912 129.745 312.912 130.665H313.912ZM314.532 129.051C315 128.617 315.539 128.405 316.172 128.405V127.405C315.285 127.405 314.503 127.713 313.852 128.318L314.532 129.051ZM316.172 128.405C316.792 128.405 317.299 128.626 317.725 129.085L318.458 128.405C317.844 127.743 317.072 127.405 316.172 127.405V128.405ZM317.738 129.098C318.161 129.521 318.372 130.032 318.372 130.665H319.372C319.372 129.777 319.063 129.008 318.445 128.391L317.738 129.098ZM318.372 130.665V169.605H319.372V130.665H318.372ZM318.372 169.605C318.372 170.237 318.161 170.748 317.738 171.171L318.445 171.878C319.063 171.261 319.372 170.492 319.372 169.605H318.372ZM317.738 171.171C317.315 171.594 316.804 171.805 316.172 171.805V172.805C317.059 172.805 317.828 172.496 318.445 171.878L317.738 171.171ZM316.172 171.805C315.539 171.805 315 171.593 314.532 171.158L313.852 171.891C314.503 172.497 315.285 172.805 316.172 172.805V171.805ZM314.545 171.171C314.123 170.748 313.912 170.237 313.912 169.605H312.912C312.912 170.492 313.221 171.261 313.838 171.878L314.545 171.171ZM313.912 169.605V168.045H312.912V169.605H313.912ZM313.051 167.698C310.218 170.648 306.925 172.105 303.152 172.105V173.105C307.219 173.105 310.766 171.521 313.772 168.391L313.051 167.698ZM303.932 168.005C305.847 168.005 307.644 167.588 309.315 166.752L308.868 165.858C307.34 166.622 305.696 167.005 303.932 167.005V168.005ZM309.32 166.75C311.013 165.883 312.501 164.746 313.781 163.342L313.042 162.668C311.843 163.984 310.451 165.047 308.864 165.86L309.32 166.75ZM313.912 163.005V150.405H312.912V163.005H313.912ZM313.781 150.068C312.499 148.662 311.008 147.543 309.311 146.715L308.873 147.614C310.455 148.386 311.844 149.428 313.042 150.742L313.781 150.068ZM309.324 146.722C307.651 145.844 305.851 145.405 303.932 145.405V146.405C305.692 146.405 307.332 146.806 308.859 147.607L309.324 146.722ZM303.932 145.405C300.856 145.405 298.338 146.387 296.431 148.379L297.153 149.071C298.845 147.303 301.088 146.405 303.932 146.405V145.405ZM296.431 148.379C294.516 150.379 293.592 153.179 293.592 156.705H294.592C294.592 153.351 295.468 150.831 297.153 149.071L296.431 148.379ZM293.592 156.705C293.592 160.231 294.516 163.031 296.431 165.031L297.153 164.339C295.468 162.579 294.592 160.059 294.592 156.705H293.592ZM296.431 165.031C298.338 167.023 300.856 168.005 303.932 168.005V167.005C301.088 167.005 298.845 166.107 297.153 164.339L296.431 165.031Z" fill="#221E55"/>
</svg>
